<?xml version="1.0" encoding="UTF-8" standalone="no" ?>
<!DOCTYPE svg PUBLIC "-//W3C//DTD SVG 1.1//EN" "http://www.w3.org/Graphics/SVG/1.1/DTD/svg11.dtd">
<svg xmlns="http://www.w3.org/2000/svg" xmlns:xlink="http://www.w3.org/1999/xlink" version="1.1" width="1080" height="1080" viewBox="-220 -668.22 1080 1080" xml:space="preserve">
<desc>Created with Fabric.js 5.2.4</desc>
<defs>
</defs>
<rect x="0" y="0" width="100%" height="100%" fill="transparent"></rect>
<g transform="matrix(1 0 0 1 540 540)" id="7f12fa4e-2960-4f92-af9c-f96853b42455"  >
<rect style="stroke: none; stroke-width: 1; stroke-dasharray: none; stroke-linecap: butt; stroke-dashoffset: 0; stroke-linejoin: miter; stroke-miterlimit: 4; fill: rgb(255,255,255); fill-rule: nonzero; opacity: 1; visibility: hidden;" vector-effect="non-scaling-stroke"  x="-540" y="-540" rx="0" ry="0" width="1080" height="1080" />
</g>
<g transform="matrix(1 0 0 1 540 540)" id="454e5c81-a7fc-4150-92ba-461625368740"  >
</g>
<g transform="matrix(1 0 0 1 35.05 77.6)"  >
<rect style="stroke: none; stroke-width: 1; stroke-dasharray: none; stroke-linecap: butt; stroke-dashoffset: 0; stroke-linejoin: miter; stroke-miterlimit: 4; fill: rgb(255,255,255); fill-opacity: 0; fill-rule: nonzero; opacity: 1;" vector-effect="non-scaling-stroke"  x="-50" y="-50" rx="0" ry="0" width="100" height="100" />
</g>
<g transform="matrix(0 0 0 0 0 0)"  >
<g style=""   >
</g>
</g>
<g transform="matrix(0 0 0 0 0 0)"  >
<g style=""   >
</g>
</g>
<g transform="matrix(0 0 0 0 0 0)"  >
<g style=""   >
</g>
</g>
<g transform="matrix(0 0 0 0 0 0)"  >
<g style=""   >
</g>
</g>
<g transform="matrix(0 0 0 0 0 0)"  >
<g style=""   >
</g>
</g>
<g transform="matrix(0 0 0 0 0 0)"  >
<g style=""   >
</g>
</g>
<g transform="matrix(0 0 0 0 0 0)"  >
<g style=""   >
</g>
</g>
<g transform="matrix(0 0 0 0 0 0)"  >
<g style=""   >
</g>
</g>
<g transform="matrix(12.97 0 0 12.97 343.91 448.5)"  >
<path style="stroke: none; stroke-width: 1; stroke-dasharray: none; stroke-linecap: butt; stroke-dashoffset: 0; stroke-linejoin: miter; stroke-miterlimit: 4; fill: rgb(255,255,255); fill-opacity: 0; fill-rule: evenodd; opacity: 1;" vector-effect="non-scaling-stroke"  transform=" translate(-96.38, -96.38)" d="M 0 0 L 192.756 0 L 192.756 192.756 L 0 192.756 L 0 0 z" stroke-linecap="round" />
</g>
<g transform="matrix(12.97 0 0 12.97 260.98 -505.49)"  >
<path style="stroke: none; stroke-width: 1; stroke-dasharray: none; stroke-linecap: butt; stroke-dashoffset: 0; stroke-linejoin: miter; stroke-miterlimit: 4; fill: rgb(1,103,172); fill-rule: evenodd; opacity: 1;" vector-effect="non-scaling-stroke"  transform=" translate(-89.99, -22.82)" d="M 83.924 25.642 C 79.26700000000001 26.593 74.313 28.679 74.313 28.679 C 76.766 25.337999999999997 81.745 21.244999999999997 81.745 21.244999999999997 C 80.375 18.671 79.162 14.859999999999998 79.162 14.859999999999998 C 79.162 14.859999999999998 84.92 15.175999999999998 89.427 16.638999999999996 C 89.427 16.638999999999996 97.084 12.441999999999997 105.018 12.312999999999995 C 105.018 12.312999999999995 99.235 15.651999999999996 96.778 18.760999999999996 C 97.43 19.103999999999996 102.055 20.487999999999996 105.65700000000001 22.610999999999997 C 105.65700000000001 22.610999999999997 99.14500000000001 22.794999999999998 93.16900000000001 23.612999999999996 C 93.16900000000001 23.612999999999996 91.06500000000001 26.580999999999996 89.28600000000002 33.336 C 89.28500000000001 33.336 86.22100000000002 29.961 83.92400000000002 25.642 z" stroke-linecap="round" />
</g>
<g transform="matrix(12.97 0 0 12.97 662.69 -189.25)"  >
<path style="stroke: none; stroke-width: 1; stroke-dasharray: none; stroke-linecap: butt; stroke-dashoffset: 0; stroke-linejoin: miter; stroke-miterlimit: 4; fill: rgb(1,103,172); fill-rule: evenodd; opacity: 1;" vector-effect="non-scaling-stroke"  transform=" translate(-120.96, -47.21)" d="M 114.861 31.235 C 110.918 26.849 105.656 22.610999999999997 105.656 22.610999999999997 C 110.49600000000001 22.679999999999996 117.679 25.535999999999998 117.679 25.535999999999998 C 119.083 22.881999999999998 120.066 19.229999999999997 120.066 19.229999999999997 C 120.066 19.229999999999997 122.81400000000001 23.880999999999997 124.062 29.023999999999997 C 124.062 29.023999999999997 129.767 32.44 134.072 38.157 C 134.072 38.157 129.58 37.22 126.273 37.236 C 126.26299999999999 37.974 127.48599999999999 44.041999999999994 127.22 48.214 C 127.22 48.214 123.55799999999999 42.263 120.122 37.306 C 120.122 37.306 114.599 37.406 108.79599999999999 38.992 C 108.797 38.992 112.047 35.238 114.86099999999999 31.235 z M 121.18 59.824 C 124.08800000000001 54.921 127.221 48.214999999999996 127.221 48.214999999999996 C 128.18200000000002 52.699999999999996 128.268 58.422 128.268 58.422 C 131.153 57.814 136.26 55.364 136.26 55.364 C 136.26 55.364 133.98499999999999 61.424 128.885 66.071 C 128.885 66.071 129.40099999999998 69.702 129.46099999999998 74.493 C 129.46099999999998 74.493 125.85399999999998 72.886 122.86299999999999 71.089 C 122.22599999999998 71.46 118.61099999999999 73.919 112.50399999999999 75.18299999999999 C 112.50399999999999 75.18299999999999 115.08999999999999 71.14299999999999 117.22899999999998 67.19699999999999 C 117.22899999999998 67.19699999999999 112.97099999999999 64.39199999999998 109.59799999999998 59.79499999999999 C 109.59799999999998 59.79399999999999 116.15599999999998 60.621999999999986 121.17999999999998 59.82399999999999 z" stroke-linecap="round" />
</g>
<g transform="matrix(12.97 0 0 12.97 256.11 13.75)"  >
<path style="stroke: none; stroke-width: 1; stroke-dasharray: none; stroke-linecap: butt; stroke-dashoffset: 0; stroke-linejoin: miter; stroke-miterlimit: 4; fill: rgb(1,103,172); fill-rule: evenodd; opacity: 1;" vector-effect="non-scaling-stroke"  transform=" translate(-89.61, -62.86)" d="M 100.609 49.819 C 105.07 55.345 109.597 59.795 109.597 59.795 C 102.201 58.696000000000005 96.196 56.622 96.196 56.622 C 93.192 61.438 89.914 67.037 89.914 67.037 C 89.914 67.037 88.081 60.96300000000001 87.771 54.069 C 87.771 54.069 84.056 52.769000000000005 77.209 50.073 C 77.209 50.073 81.932 47.141 87.648 45.542 C 87.314 44.883 88.19 36.687 89.286 33.337 C 89.286 33.337 92.619 38.74 95.333 42.712 C 95.333 42.712 100.645 40.910000000000004 108.798 38.992000000000004 C 108.797 38.992000000000004 104.336 44.653000000000006 100.60900000000001 49.819 z M 60 70.721 C 59.550853098496844 69.8759937698322 59.13224908926759 69.01510377156868 58.745000000000005 68.14000000000001 C 58.823 65.209 59.085 61.434 59.835 58.506 C 59.835 58.506 57.686 57.015 55.464 55.077 C 55.439 54.739999999999995 55.41 54.4 55.391 54.059 C 56.667 53.583 59.376 52.626 61.742 52.077999999999996 C 62.013 51.388999999999996 63.486 46.641999999999996 66.333 43.367 C 66.333 43.367 66.52499999999999 46.593999999999994 67.29899999999999 50.89 C 67.29899999999999 50.89 71.79299999999999 49.872 77.208 50.071 C 77.208 50.071 72.19 54.022999999999996 69.03 58.038 C 70.176 62.666999999999994 72.482 67.11 72.482 67.11 C 69.036 65.16 65.391 62.577 65.391 62.577 C 64.111 64.099 61.538000000000004 68.205 60.00000000000001 70.721 z M 88.667 91.74 C 88.10923519494385 91.63952425337423 87.55406263601292 91.52515537186474 87.002 91.39699999999999 C 85.121 89.38 82.252 86.08699999999999 80.06099999999999 82.62599999999999 C 80.06099999999999 82.62599999999999 71.97899999999998 81.97399999999999 66.28399999999999 79.47999999999999 C 66.28399999999999 79.47999999999999 70.99399999999999 78.59499999999998 76.166 75.92799999999998 C 75.832 75.26899999999998 73.86 71.63299999999998 72.481 67.11199999999998 C 72.481 67.11199999999998 77.42099999999999 71.10299999999998 81.08099999999999 73.43899999999998 C 81.08099999999999 73.43899999999998 85.73199999999999 70.76299999999998 89.91299999999998 67.03699999999998 C 89.91299999999998 67.03699999999998 88.85299999999998 72.18699999999998 88.26599999999998 78.06899999999997 C 90.96723816993735 79.61169168025734 93.69086191899973 81.11485195988071 96.43599999999985 82.57799999999999 C 92.21899999999998 83.19199999999998 88.06799999999998 83.06299999999997 88.06799999999998 83.06299999999997 C 87.90399999999998 86.32899999999998 88.34299999999999 89.76199999999997 88.66699999999999 91.73999999999998 z M 123.828 81.238 C 123.828 81.238 118.254 82.711 112.81400000000001 82.915 C 112.81400000000001 82.915 112.77300000000001 79.20400000000001 112.503 75.183 C 112.503 75.183 109.614 79.283 105.843 83.226 C 101.39 83.162 96.436 82.579 96.436 82.579 C 98.13485922890801 84.30802969110636 99.88256626379953 85.98837614193984 101.67700000000002 87.618 C 98.32300000000001 90.469 95.22300000000001 92.374 95.22300000000001 92.374 C 95.66300000000001 92.38 96.11100000000002 92.383 96.55400000000002 92.377 C 107.14100000000002 92.204 116.70900000000002 87.99 123.82800000000002 81.238 z" stroke-linecap="round" />
</g>
<g transform="matrix(12.97 0 0 12.97 337.37 441.42)"  >
<path style="stroke: none; stroke-width: 1; stroke-dasharray: none; stroke-linecap: butt; stroke-dashoffset: 0; stroke-linejoin: miter; stroke-miterlimit: 4; fill: rgb(1,103,172); fill-rule: evenodd; opacity: 1;" vector-effect="non-scaling-stroke"  transform=" translate(-96.38, -97.01)" d="M 55.881 45.093 C 55.881 45.093 58.859 41.379000000000005 62.335 38.363 C 62.335 38.363 63.497 40.509 66.333 43.368 C 66.333 43.368 66.354 39.874 66.76 34.392 C 69.936 31.584000000000003 74.313 28.679000000000002 74.313 28.679000000000002 C 70.683 28.448 67.974 28.625000000000004 67.974 28.625000000000004 C 68.816 24.465000000000003 70.718 20.001000000000005 70.718 20.001000000000005 C 63 26.121000000000006 57.568000000000005 34.992000000000004 55.881 45.093 z M 133.826 152.654 C 128.623 152.654 125.463 148.295 125.463 143.515 C 125.463 138.54799999999997 129.147 134.94899999999998 133.95499999999998 134.94899999999998 C 139.283 134.94899999999998 142.49399999999997 139.17899999999997 142.49399999999997 143.82799999999997 C 142.49399999999997 149.33599999999998 138.49999999999997 152.65399999999997 133.82599999999996 152.65399999999997 z M 133.535 137.453 C 130.297 137.453 129.32999999999998 140.535 129.32999999999998 142.623 C 129.32999999999998 145.676 130.689 150.143 134.42399999999998 150.143 C 137.08799999999997 150.143 138.629 147.772 138.629 144.924 C 138.629 141.89600000000002 137.45499999999998 137.453 133.535 137.453 z M 101.988 150.174 C 101.988 151.113 102.168 151.451 103.685 151.744 L 103.685 152.394 C 102.039 152.316 101.017 152.238 100.054 152.238 C 99.08500000000001 152.238 98.068 152.316 96.919 152.394 L 96.919 151.738 C 97.935 151.558 98.121 151.113 98.121 149.884 L 98.121 137.11399999999998 C 98.121 136.37999999999997 97.807 136.03799999999998 96.919 136.01199999999997 L 96.919 135.28499999999997 L 104.648 135.28499999999997 C 109.482 135.28499999999997 111.234 137.58399999999997 111.234 140.61699999999996 C 111.234 143.85699999999997 108.777 145.84399999999997 105.408 145.84399999999997 C 104.129 145.84399999999997 102.25 145.18799999999996 102.25 144.63899999999995 C 102.25 144.40499999999994 102.406 144.40499999999994 102.641 144.40499999999994 C 102.876 144.40499999999994 103.21300000000001 144.48299999999995 103.55300000000001 144.48299999999995 C 106.29500000000002 144.48299999999995 107.36900000000001 142.94199999999995 107.36900000000001 140.77399999999994 C 107.36900000000001 138.41999999999993 105.90400000000001 137.58499999999995 103.60300000000001 137.58499999999995 L 101.98800000000001 137.75899999999996 L 101.98800000000001 150.17399999999995 z M 116.283 136.953 C 116.283 136.224 115.971 135.881 115.08200000000001 135.857 L 115.08200000000001 135.177 C 116.23 135.255 117.24600000000001 135.333 118.215 135.333 C 119.184 135.333 120.20100000000001 135.255 121.348 135.177 L 121.348 135.857 C 120.463 135.88 120.147 136.224 120.147 136.953 L 120.147 150.642 C 120.147 151.376 120.46300000000001 151.714 121.348 151.744 L 121.348 152.394 C 120.202 152.316 119.182 152.238 118.215 152.238 C 117.24600000000001 152.238 116.23100000000001 152.316 115.08200000000001 152.394 L 115.08200000000001 151.744 C 115.971 151.715 116.283 151.377 116.283 150.642 L 116.283 136.953 z M 147.732 136.941 C 147.732 136.212 147.416 135.869 146.527 135.845 L 146.527 135.159 C 147.677 135.23499999999999 148.69699999999997 135.321 149.664 135.321 C 150.369 135.321 151.152 135.321 151.96499999999997 135.159 L 159.17399999999998 146.845 L 159.22499999999997 146.845 L 159.22499999999997 137.308 C 159.22499999999997 135.947 158.36399999999998 135.845 157.65899999999996 135.845 L 157.65899999999996 135.159 C 158.51999999999995 135.23499999999999 159.35399999999996 135.321 160.16699999999997 135.321 C 161.02799999999996 135.321 161.89 135.23499999999999 162.72899999999998 135.159 L 162.72899999999998 135.845 C 161.838 135.868 161.52399999999997 136.212 161.52399999999997 136.941 L 161.52399999999997 152.394 L 158.75399999999996 152.394 L 150.08199999999997 138.904 L 150.03099999999998 138.904 L 150.03099999999998 150.263 C 150.03099999999998 151.624 150.88799999999998 151.726 151.59699999999998 151.726 L 151.59699999999998 152.382 C 150.736 152.304 149.89799999999997 152.22 149.08899999999997 152.22 C 148.22799999999998 152.22 147.36399999999998 152.304 146.52699999999996 152.382 L 146.52699999999996 151.726 C 147.41599999999997 151.703 147.73199999999997 151.359 147.73199999999997 150.63 L 147.73199999999997 136.941 z M 168.068 146.453 C 168.603 149.385 170.52700000000002 150.758 173.40800000000002 150.758 C 174.99 150.758 177.27900000000002 150.30100000000002 177.27900000000002 148.28300000000002 C 177.27900000000002 146.67000000000002 175.61100000000002 146.24200000000002 174.37500000000003 145.86300000000003 L 172.46300000000002 145.29700000000003 C 169.72100000000003 144.49000000000004 166.979 143.33400000000003 166.979 140.16200000000003 C 166.979 135.99600000000004 171.012 134.73200000000003 175.018 134.73200000000003 C 176.717 134.73200000000003 178.461 135.02700000000002 180.022 135.59300000000002 C 180.022 137.531 180.129 139.16700000000003 180.23499999999999 140.56600000000003 L 179.563 140.56600000000003 C 178.999 138.09100000000004 176.98499999999999 136.93500000000003 174.565 136.93500000000003 C 173.215 136.93500000000003 170.96099999999998 137.36900000000003 170.96099999999998 139.22200000000004 C 170.96099999999998 140.70400000000004 172.248 141.13000000000002 173.35199999999998 141.45100000000005 L 176.17399999999998 142.26300000000006 C 178.88899999999998 143.03800000000007 181.41799999999998 144.03800000000007 181.41799999999998 147.53100000000006 C 181.41799999999998 151.07600000000005 177.84199999999998 152.96100000000007 173.45899999999997 152.96100000000007 C 171.49599999999998 152.96100000000007 169.426 152.64300000000006 167.62499999999997 151.99200000000008 C 167.62499999999997 149.86700000000008 167.54499999999996 148.01700000000008 167.40799999999996 146.4530000000001 L 168.06799999999996 146.4530000000001 z M 32.25 136.953 C 32.25 136.224 31.938 135.881 31.046 135.857 L 31.046 135.177 C 32.196 135.255 33.216 135.333 34.183 135.333 C 35.15 135.333 36.166 135.255 37.317 135.177 L 37.317 135.857 C 36.429 135.88 36.119 136.224 36.119 136.953 L 36.116 142.125 L 42.437 142.131 L 42.437 136.953 C 42.437 136.224 42.126999999999995 135.881 41.239 135.857 L 41.239 135.177 C 42.385999999999996 135.255 43.407 135.333 44.372 135.333 C 45.338 135.333 46.359 135.255 47.503 135.177 L 47.503 135.857 C 46.618 135.88 46.304 136.224 46.304 136.953 L 46.304 150.642 C 46.304 151.376 46.617000000000004 151.714 47.503 151.738 L 47.503 152.406 C 46.358 152.33 45.338 152.25 44.369 152.25 C 43.407 152.25 42.386 152.33 41.236 152.406 L 41.236 151.738 C 42.126999999999995 151.715 42.437 151.377 42.437 150.642 L 42.437 144.634 L 36.116 144.634 L 36.116 150.642 C 36.116 151.376 36.429 151.714 37.318 151.738 L 37.318 152.406 C 36.168 152.33 35.150999999999996 152.25 34.184 152.25 C 33.217999999999996 152.25 32.196999999999996 152.33 31.046999999999997 152.406 L 31.046999999999997 151.738 C 31.935 151.715 32.251 151.377 32.251 150.642 L 32.251 136.953 L 32.25 136.953 z M 57.174 144.918 C 57.851 143.07 58.687 141.00400000000002 59.287 138.916 L 59.341 138.916 C 59.864000000000004 141.553 60.308 143.227 60.856 144.918 L 57.174 144.918 z M 50.849 152.395 C 51.76499999999999 152.317 52.654999999999994 152.239 53.56699999999999 152.239 C 54.45499999999999 152.239 55.370999999999995 152.317 56.257999999999996 152.395 L 56.257999999999996 151.739 C 55.394 151.684 55.028999999999996 151.37800000000001 55.028999999999996 150.903 C 55.028999999999996 150.643 55.107 150.35399999999998 55.239999999999995 149.987 L 56.385999999999996 146.905 L 61.479 146.905 L 62.316 149.446 C 62.449000000000005 149.784 62.578 150.385 62.578 150.74699999999999 C 62.578 151.349 62.238 151.559 61.271 151.73899999999998 L 61.271 152.39499999999998 C 62.394 152.31699999999998 63.517 152.23899999999998 64.642 152.23899999999998 C 65.735 152.23899999999998 66.86099999999999 152.31699999999998 67.959 152.39499999999998 L 67.959 151.73899999999998 C 67.177 151.53399999999996 66.782 151.19199999999998 66.391 150.04199999999997 L 61.584 135.17899999999997 C 60.773 135.25699999999998 59.937000000000005 135.33499999999998 59.127 135.33499999999998 C 58.32 135.33499999999998 57.507000000000005 135.25699999999998 56.673 135.17899999999997 L 56.673 135.85899999999998 C 57.377 135.85899999999998 57.667 136.27499999999998 57.667 136.54099999999997 C 57.667 136.79899999999998 57.480000000000004 137.16599999999997 57.327 137.55699999999996 L 52.205999999999996 150.53699999999995 C 51.94499999999999 151.22299999999996 51.605 151.63899999999995 50.846 151.73999999999995 L 50.846 152.39499999999995 L 50.849 152.39499999999995 z M 73.232 139.41 C 73.259 138.68099999999998 73.307 137.947 73.307 136.906 C 73.307 136.092 73.126 135.99 72.134 135.857 L 72.134 135.177 C 72.916 135.255 73.858 135.333 74.801 135.333 C 75.74 135.333 76.682 135.255 77.621 135.177 L 82.193 147.28799999999998 L 86.28999999999999 135.177 C 87.20899999999999 135.255 88.097 135.333 89.011 135.333 C 89.923 135.333 90.838 135.255 91.726 135.177 L 91.726 135.857 C 90.814 135.935 90.681 136.224 90.681 136.929 C 90.681 137.663 90.785 138.837 90.862 139.722 L 91.702 150.87800000000001 C 91.754 151.55800000000002 92.509 151.65900000000002 93.033 151.73700000000002 L 93.033 152.39300000000003 C 91.907 152.31500000000003 90.761 152.23700000000002 89.637 152.23700000000002 C 88.487 152.23700000000002 87.365 152.31500000000003 86.289 152.39300000000003 L 86.289 151.73700000000002 C 87.572 151.58100000000002 87.912 151.34600000000003 87.912 150.14700000000002 C 87.912 149.51600000000002 87.831 148.342 87.756 147.48100000000002 L 87.153 139.69800000000004 L 87.102 139.69800000000004 L 82.74000000000001 152.53800000000004 L 80.546 152.53800000000004 L 75.555 139.54200000000003 L 75.5 139.54200000000003 L 75.293 147.19200000000004 C 75.269 148.55300000000003 75.21400000000001 149.25800000000004 75.21400000000001 149.96200000000005 C 75.21400000000001 151.26900000000003 75.34400000000001 151.55800000000005 76.91300000000001 151.73700000000005 L 76.91300000000001 152.39300000000006 C 75.86800000000001 152.31500000000005 74.90100000000001 152.23700000000005 73.90800000000002 152.23700000000005 C 72.94500000000002 152.23700000000005 71.97500000000001 152.31500000000005 71.16600000000001 152.39300000000006 L 71.16600000000001 151.73700000000005 C 72.186 151.65900000000005 72.60400000000001 151.42500000000004 72.656 150.32900000000006 L 73.232 139.41000000000005 z M 27.111 151.438 C 25.323 152.81099999999998 22.759 153.35999999999999 21.085 153.35999999999999 C 14.857000000000001 153.35999999999999 11.338000000000001 148.52999999999997 11.338000000000001 143.577 C 11.338000000000001 138.513 14.857000000000001 133.612 21.606 133.62 C 23.969 133.62 25.664 134.06900000000002 26.328000000000003 134.329 C 26.328000000000003 136.309 26.434000000000005 138.21800000000002 26.581000000000003 140.108 L 25.825000000000003 140.108 C 25.365000000000002 137.69400000000002 23.679000000000002 136.413 21.257000000000005 136.413 C 17.973000000000006 136.413 15.435000000000006 139.001 15.435000000000006 143.372 C 15.435000000000006 146.66500000000002 18.143000000000008 150.39200000000002 21.951000000000008 150.39200000000002 C 23.56500000000001 150.39200000000002 25.886000000000006 149.50700000000003 27.445000000000007 148.19500000000002 L 27.111000000000008 151.43800000000002 z M 55.391 161.84 C 55.391 161.276 55.147 161.01 54.464 160.992 L 54.464 160.43699999999998 C 55.352 160.503 56.137 160.558 56.881 160.558 C 57.73 160.558 58.962 160.503 59.545 160.43699999999998 L 59.545 160.992 C 58.516000000000005 161.033 58.375 161.539 58.375 162.099 L 58.375 171.97799999999998 L 62.104 171.97799999999998 C 63.437 171.97799999999998 63.982 171.37099999999998 64.323 169.83499999999998 L 64.979 169.83499999999998 C 64.735 171.147 64.513 172.44199999999998 64.492 173.75499999999997 L 54.464 173.75499999999997 L 54.464 173.19999999999996 C 55.147 173.18199999999996 55.391 172.91699999999997 55.391 172.34999999999997 L 55.391 161.83999999999997 z M 68.226 161.906 C 68.226 161.342 67.982 161.076 67.29899999999999 161.058 L 67.29899999999999 160.509 L 77.487 160.509 C 77.49848380692207 161.54273780916512 77.55186094646876 162.57558545939344 77.64699999999999 163.60499999999996 L 77.09499999999998 163.605 C 76.89399999999999 162.49599999999998 76.61199999999998 162.111 75.52399999999999 162.111 L 71.20799999999998 162.111 L 71.20799999999998 166.011 L 73.88999999999999 166.011 C 74.79499999999999 166.011 74.93699999999998 165.704 75.05699999999999 164.982 L 75.60799999999999 164.982 C 75.5360198646597 165.62028136229856 75.49563724736691 166.26173087004028 75.487 166.90400000000002 C 75.487 167.445 75.547 168.32999999999998 75.60799999999999 168.81799999999998 L 75.05699999999999 168.81799999999998 C 74.93599999999999 168.08899999999997 74.79499999999999 167.789 73.88999999999999 167.789 L 71.20799999999998 167.789 L 71.20799999999998 171.97799999999998 L 75.74399999999999 171.97799999999998 C 76.83399999999999 171.97799999999998 77.17399999999999 171.611 77.51899999999999 169.91899999999998 L 78.19099999999999 169.91899999999998 C 78.04716897987717 171.19288470872942 77.96673643888927 172.47313046486877 77.94999999999999 173.755 L 67.299 173.755 L 67.299 173.2 C 67.98200000000001 173.182 68.22600000000001 172.917 68.22600000000001 172.35 L 68.22600000000001 161.906 z M 80.61 173.207 C 81.193 173.123 81.456 172.803 81.658 172.279 L 85.613 162.287 C 85.734 161.978 85.875 161.703 85.875 161.50400000000002 C 85.875 161.299 85.651 160.97500000000002 85.107 160.97500000000002 L 85.107 160.42600000000002 C 85.751 160.48700000000002 86.378 160.54700000000003 87.003 160.54700000000003 C 87.629 160.54700000000003 88.273 160.48600000000002 88.9 160.42600000000002 L 92.61 171.901 C 92.915 172.78 93.215 173.04600000000002 93.82 173.208 L 93.82 173.757 C 92.97099999999999 173.696 92.107 173.636 91.25899999999999 173.636 C 90.39199999999998 173.636 89.52499999999999 173.697 88.65799999999999 173.757 L 88.65799999999999 173.208 C 89.40499999999999 173.063 89.66599999999998 172.901 89.66599999999998 172.444 C 89.66599999999998 172.161 89.56399999999998 171.696 89.46399999999998 171.438 L 88.81799999999998 169.487 L 84.88599999999998 169.487 L 83.99799999999998 171.858 C 83.89599999999997 172.135 83.83499999999998 172.358 83.83499999999998 172.56300000000002 C 83.83499999999998 172.918 84.11799999999998 173.16500000000002 84.78299999999997 173.20800000000003 L 84.78299999999997 173.75700000000003 C 84.09699999999997 173.69600000000003 83.39299999999997 173.63600000000002 82.70599999999997 173.63600000000002 C 81.99799999999998 173.63600000000002 81.31599999999997 173.69700000000003 80.60799999999998 173.75700000000003 L 80.60799999999998 173.20700000000002 L 80.60999999999997 173.20700000000002 z M 88.333 167.957 C 87.91199999999999 166.65 87.566 165.363 87.16199999999999 163.328 L 87.12299999999999 163.328 C 86.66 164.935 86.01299999999999 166.531 85.48899999999999 167.957 L 88.33299999999998 167.957 z M 104.609 169.035 C 104.609 168.228 104.244 168.191 103.339 168.174 L 103.339 167.494 C 104.16499999999999 167.56 104.993 167.621 105.839 167.621 C 106.749 167.621 107.636 167.56 108.542 167.494 L 108.542 168.131 C 107.83500000000001 168.151 107.474 168.33 107.474 169.24 L 107.474 173.756 L 106.302 173.756 L 105.83900000000001 172.401 C 104.56900000000002 173.592 103.23500000000001 174.014 101.86600000000001 174.014 C 98.07300000000001 174.014 95.65300000000002 170.889 95.65300000000002 167.26000000000002 C 95.65300000000002 162.883 98.57900000000002 160.23300000000003 102.93500000000002 160.23300000000003 C 104.32800000000002 160.23300000000003 105.82800000000002 160.49300000000002 106.91200000000002 161.17200000000003 C 106.91200000000002 162.16000000000003 106.95300000000002 163.29900000000004 107.03500000000003 164.68800000000002 L 106.45300000000003 164.68800000000002 C 106.19300000000003 162.895 104.48800000000003 162.01000000000002 102.81600000000003 162.01000000000002 C 100.00900000000003 162.01000000000002 98.64000000000003 164.15300000000002 98.64000000000003 166.75400000000002 C 98.64000000000003 169.258 100.05200000000004 172.08 102.39000000000003 172.08 C 103.82400000000003 172.08 104.60900000000002 171.41400000000002 104.60900000000002 170.48600000000002 L 104.60900000000002 169.03500000000003 z M 112.598 161.84 C 112.598 161.276 112.354 161.01 111.672 160.992 L 111.672 160.43699999999998 C 112.4415217489887 160.51563740028948 113.21447324270484 160.5560204446503 113.988 160.558 C 115.039 160.558 115.867 160.503 116.674 160.43699999999998 L 116.674 160.992 C 115.80300000000001 161.033 115.584 161.191 115.584 161.97799999999998 L 115.584 169.515 C 115.584 171.79799999999997 116.533 172.236 118.166 172.236 C 119.79899999999999 172.236 120.74799999999999 171.756 120.74799999999999 169.515 L 120.74799999999999 161.97799999999998 C 120.74799999999999 161.19099999999997 120.52699999999999 161.033 119.65599999999999 160.992 L 119.65599999999999 160.43699999999998 C 120.467 160.503 121.291 160.558 122.34199999999998 160.558 C 123.18799999999999 160.558 124.01599999999999 160.503 124.65999999999998 160.43699999999998 L 124.65999999999998 160.992 C 123.97599999999998 161.01 123.73199999999999 161.27499999999998 123.73199999999999 161.84 L 123.73199999999999 169.096 C 123.73199999999999 172.828 121.79599999999999 174.014 118.16599999999998 174.014 C 114.53299999999999 174.014 112.59799999999998 172.828 112.59799999999998 169.37900000000002 L 112.59799999999998 161.84000000000003 z M 128.928 161.906 C 128.928 161.342 128.69 161.076 128.002 161.058 L 128.002 160.509 L 138.193 160.509 C 138.214 161.61599999999999 138.252 162.515 138.351 163.605 L 137.8 163.605 C 137.59900000000002 162.49599999999998 137.316 162.111 136.226 162.111 L 131.917 162.111 L 131.917 165.953 L 134.595 165.953 C 135.501 165.953 135.644 165.65 135.767 164.924 L 136.314 164.924 C 136.24413190374014 165.55978917944563 136.2037552895418 166.19847380403772 136.19299999999998 166.838 C 136.19299999999998 167.385 136.25699999999998 168.26999999999998 136.314 168.75799999999998 L 135.767 168.75799999999998 C 135.644 168.02899999999997 135.501 167.72899999999998 134.595 167.72899999999998 L 131.917 167.72899999999998 L 131.917 171.97899999999998 L 136.448 171.97899999999998 C 137.538 171.97899999999998 137.882 171.612 138.225 169.92 L 138.89499999999998 169.92 C 138.75040671268448 171.19383031047576 138.66963907456272 172.4740974998772 138.653 173.75600000000003 L 128.001 173.756 L 128.001 173.201 C 128.689 173.183 128.927 172.918 128.927 172.351 L 128.927 161.906 L 128.928 161.906 z M 77.229 130.393 C 81.666 125.311 88.191 122.102 95.471 122.102 C 102.95100000000001 122.102 109.642 125.497 114.086 130.83100000000002 L 115.26 129.729 C 110.528 124.10200000000002 103.434 120.53200000000001 95.504 120.53200000000001 C 87.78 120.53200000000001 80.852 123.921 76.122 129.303 L 77.229 130.393 z M 93.403 117.557 L 86.31700000000001 119.031 L 84.53200000000001 110.447 L 91.52100000000002 108.99600000000001 L 91.84900000000002 110.566 L 87.25600000000001 111.523 L 87.62900000000002 113.324 L 92.01200000000001 112.41 L 92.33900000000001 113.98599999999999 L 87.95500000000001 114.895 L 88.38500000000002 116.961 L 93.07500000000002 115.984 L 93.40300000000002 117.55699999999999 z M 106.924 112.018 L 102.697 111.127 L 102.297 113.035 L 106.52 113.932 L 106.189 115.504 L 101.967 114.607 L 101.223 118.135 L 98.828 117.623 L 100.635 109.051 L 107.25800000000001 110.447 L 106.924 112.018 z M 117.141 126.689 L 115.039 124.70299999999999 L 115.371 122.81799999999998 L 111.764 120.31199999999998 L 110.16799999999999 121.31799999999998 L 107.78099999999999 119.98199999999999 L 116.297 114.90799999999999 L 118.625 116.52099999999999 L 117.141 126.689 z M 116.418 117.31599999999999 L 113.19900000000001 119.34299999999999 L 115.75600000000001 121.11999999999999 L 116.41800000000002 117.31599999999999 z M 78.196 123.174 C 76.625 124.42 73.961 125.438 72.013 123.149 L 69.19900000000001 119.544 L 71.08000000000001 118.05799999999999 L 73.84000000000002 121.603 C 74.83600000000001 122.777 76.08900000000001 122.54799999999999 77.08700000000002 121.765 C 78.08300000000001 120.984 78.59500000000001 119.81400000000001 77.68700000000001 118.57000000000001 L 74.92300000000002 115.02900000000001 L 76.80400000000002 113.549 L 79.61900000000001 117.15400000000001 C 81.29900000000002 119.45900000000002 80.25800000000001 121.53500000000001 78.19600000000001 123.174 z" stroke-linecap="round" />
</g>
<g transform="matrix(12.97 0 0 12.97 939.92 1495.62)"  >
<path style="stroke: none; stroke-width: 1; stroke-dasharray: none; stroke-linecap: butt; stroke-dashoffset: 0; stroke-linejoin: miter; stroke-miterlimit: 4; fill: rgb(0,0,0); fill-rule: evenodd; opacity: 1;" vector-effect="non-scaling-stroke"  transform=" translate(-142.33, -177.11)" d="M 140.896 175.211 L 142.22 175.211 C 142.726 175.211 143.021 175.28300000000002 143.271 175.477 C 143.5130536429465 175.65903045797023 143.6556078193917 175.94413881086066 143.65599999999998 176.247 C 143.65599999999998 176.70600000000002 143.32599999999996 177.067 142.795 177.175 C 143.05499999999998 177.25300000000001 143.172 177.32000000000002 143.283 177.452 C 143.422 177.62 143.482 177.796 143.58599999999998 178.343 L 143.64499999999998 178.63799999999998 C 143.68399999999997 178.855 143.69599999999997 178.89199999999997 143.76999999999998 179.01699999999997 L 143.37499999999997 179.01699999999997 C 143.29499999999996 178.84899999999996 143.27699999999996 178.78299999999996 143.23199999999997 178.52499999999998 C 143.09299999999996 177.742 143.07599999999996 177.68699999999998 142.88199999999998 177.50199999999998 C 142.73199999999997 177.35699999999997 142.527 177.30899999999997 142.093 177.30899999999997 L 141.259 177.30899999999997 L 141.259 179.01799999999997 L 140.896 179.01799999999997 L 140.896 175.21099999999998 z M 142.232 177.012 C 142.882 177.012 143.277 176.723 143.277 176.246 C 143.277 175.746 142.89399999999998 175.482 142.17 175.482 L 141.254 175.482 L 141.254 177.011 L 142.232 177.011 L 142.232 177.012 z" stroke-linecap="round" />
</g>
<g transform="matrix(12.97 0 0 12.97 960.17 1496.27)"  >
<path style="stroke: none; stroke-width: 1; stroke-dasharray: none; stroke-linecap: butt; stroke-dashoffset: 0; stroke-linejoin: miter; stroke-miterlimit: 4; fill: rgb(0,0,0); fill-rule: evenodd; opacity: 1;" vector-effect="non-scaling-stroke"  transform=" translate(-143.89, -177.17)" d="M 142.248 180.443 C 144.06199999999998 180.443 145.541 178.98600000000002 145.541 177.168 C 145.541 175.35 144.06199999999998 173.887 142.248 173.887 L 142.248 174.201 C 143.87699999999998 174.201 145.18699999999998 175.529 145.197 177.168 C 145.197 178.816 143.877 180.143 142.248 180.143 L 142.248 180.443 z" stroke-linecap="round" />
</g>
<g transform="matrix(0 0 0 0 0 0)"  >
<g style=""   >
</g>
</g>
<g transform="matrix(0 0 0 0 0 0)"  >
<g style=""   >
</g>
</g>
<g transform="matrix(0 0 0 0 0 0)"  >
<g style=""   >
</g>
</g>
<g transform="matrix(0 0 0 0 0 0)"  >
<g style=""   >
</g>
</g>
</svg>