<?xml version="1.0" encoding="UTF-8" standalone="no" ?>
<!DOCTYPE svg PUBLIC "-//W3C//DTD SVG 1.1//EN" "http://www.w3.org/Graphics/SVG/1.1/DTD/svg11.dtd">
<svg xmlns="http://www.w3.org/2000/svg" xmlns:xlink="http://www.w3.org/1999/xlink" version="1.1" width="1080" height="1080" viewBox="0 0 1080 1080" xml:space="preserve">
<desc>Created with Fabric.js 5.2.4</desc>
<defs>
</defs>
<rect x="0" y="0" width="100%" height="100%" fill="transparent"></rect>
<g transform="matrix(1 0 0 1 540 540)" id="dd74d9c3-57f7-457e-9666-33a9f1ad4a59"  >
</g>
<g transform="matrix(1 0 0 1 540 540)" id="3835a668-ec0f-41e0-b5e8-04908e4f958b"  >
<rect style="stroke: none; stroke-width: 1; stroke-dasharray: none; stroke-linecap: butt; stroke-dashoffset: 0; stroke-linejoin: miter; stroke-miterlimit: 4; fill: rgb(255,255,255); fill-opacity: 0.04; fill-rule: nonzero; opacity: 1;" vector-effect="non-scaling-stroke"  x="-540" y="-540" rx="0" ry="0" width="1080" height="1080" />
</g>
<g transform="matrix(12.97 0 0 12.97 571.3 1093.25)"  >
<path style="stroke: none; stroke-width: 1; stroke-dasharray: none; stroke-linecap: butt; stroke-dashoffset: 0; stroke-linejoin: miter; stroke-miterlimit: 4; fill: rgb(255,255,255); fill-opacity: 0; fill-rule: evenodd; opacity: 1;" vector-effect="non-scaling-stroke"  transform=" translate(-96.38, -96.38)" d="M 0 0 L 192.756 0 L 192.756 192.756 L 0 192.756 L 0 0 z" stroke-linecap="round" />
</g>
<g transform="matrix(12.97 0 0 12.97 566.36 514.05)"  >
<path style="stroke: none; stroke-width: 1; stroke-dasharray: none; stroke-linecap: butt; stroke-dashoffset: 0; stroke-linejoin: miter; stroke-miterlimit: 4; fill: rgb(228,231,244); fill-rule: evenodd; opacity: 1;" vector-effect="non-scaling-stroke"  transform=" translate(-96, -51.72)" d="M 129.104 47.508 C 129.151 47.394000000000005 130.467 57.646 130.57500000000002 57.626000000000005 C 132.11800000000002 57.33800000000001 137.317 55.346000000000004 138.30200000000002 54.74700000000001 C 138.38800000000003 54.696000000000005 135.63800000000003 61.66100000000001 131.21200000000002 65.396 C 131.08900000000003 65.5 131.57700000000003 71.099 131.63400000000001 73.742 C 131.63600000000002 73.867 126.98200000000001 72.027 124.78400000000002 70.79 C 121.58700000000002 72.85400000000001 114.03400000000002 75.183 114.03800000000003 75.319 L 114.23100000000002 82.87700000000001 C 114.23300000000002 82.956 125.51000000000002 81.61300000000001 125.39700000000002 81.706 C 116.14300000000001 89.403 107.64700000000002 92.902 96.80200000000002 92.961 C 96.58000000000003 92.962 101.52200000000002 89.90299999999999 102.44400000000002 87.91199999999999 C 101.64500000000001 87.12199999999999 98.00800000000001 84.06899999999999 97.16100000000002 83.05499999999999 C 97.27200000000002 82.857 103.83900000000001 83.452 106.94200000000002 83.442 C 109.08300000000003 81.21199999999999 111.12200000000001 78.871 112.87200000000001 76.31599999999999 C 114.94400000000002 73.29299999999999 117.07700000000001 70.29199999999999 118.69600000000001 66.99199999999999 C 118.772 66.83399999999999 113.10800000000002 62.23699999999999 111.022 59.49299999999999 C 110.93 59.37299999999999 118.723 59.71299999999999 122.456 59.36399999999999 C 122.934 59.31799999999999 127.5 51.31699999999999 129.104 47.50799999999999 z M 105.158 10.482 C 102.974 11.925999999999998 97.217 16.909 97.449 16.988 C 100.347 17.980999999999998 103.37899999999999 18.967 106.187 20.469 C 106.27499999999999 20.515 106.337 20.597 106.435 20.752000000000002 C 102.197 21.054000000000002 98.148 20.92 93.82300000000001 21.813000000000002 C 91.899 24.295 89.99700000000001 28.916000000000004 89.34100000000001 32.06 C 91.316 35.264 93.26200000000001 38.434000000000005 95.42800000000001 41.451 C 95.72900000000001 41.573 105.19900000000001 39.002 109.75500000000001 37.738 C 109.75500000000001 37.738 101.284 49.105000000000004 101.33500000000001 49.165 C 101.33500000000001 49.165 110.35100000000001 59.099 110.245 59.084 C 105.65100000000001 58.422000000000004 96.414 56.175000000000004 96.327 56.323 L 90.064 66.838 C 89.30699999999999 70.41099999999999 88.725 74.19399999999999 88.31599999999999 78.02099999999999 C 88.45599999999999 78.29499999999999 96.603 82.65399999999998 96.603 82.65399999999998 C 96.714 82.71399999999998 91.11099999999999 83.43699999999998 88.39999999999999 83.37799999999999 C 88.15499999999999 83.37299999999999 88.26299999999999 89.34199999999998 88.74399999999999 92.00999999999999 C 88.76699999999998 92.13999999999999 87.37799999999999 92.09599999999999 86.81799999999998 91.978 C 85.21499999999999 90.499 79.49899999999998 82.96499999999999 79.30899999999998 82.946 C 74.67899999999999 82.491 70.04799999999999 81.764 65.68599999999998 80.081 C 65.57099999999998 80.037 75.38999999999999 76.075 75.39899999999997 76.047 C 75.46099999999997 75.868 72.47199999999997 69.996 71.63499999999998 67.108 C 69.05199999999998 65.57600000000001 63.89999999999998 62.536 63.80199999999998 62.67100000000001 C 61.96999999999998 65.23700000000001 58.324999999999974 70.50800000000001 58.30199999999998 70.474 C 57.77799999999998 69.688 57.45199999999998 68.89800000000001 57.16199999999998 68.175 C 57.29799999999998 64.844 58.05799999999998 57.977 57.869999999999976 57.833 C 56.45999999999998 56.763999999999996 53.494999999999976 53.815 53.702999999999975 53.573 C 55.854999999999976 52.775 58.000999999999976 52.188 60.220999999999975 51.564 C 61.214999999999975 49.067 64.50699999999998 43.214 64.80599999999997 42.649 C 64.77999999999997 42.289 61.93299999999997 39.134 61.00399999999997 37.686 C 60.84699999999997 37.44 54.17699999999997 43.764 54.18799999999997 43.694 C 56.159 30.92 64.406 21.923 69.022 18.86 C 69.10000000000001 18.808 67.241 24.201 66.77300000000001 26.953 C 66.74600000000001 27.116 71.00300000000001 27.154 72.95500000000001 27.282 C 72.98000000000002 27.453 66.90100000000001 31.964 65.48100000000001 33.153999999999996 C 65.24600000000001 37.629999999999995 65.10900000000001 43.687 65.956 49.92699999999999 C 66.175 50.157999999999994 72.154 49.913999999999994 76.476 49.300999999999995 C 78.878 47.95399999999999 86.247 45.07299999999999 87.221 44.75299999999999 C 87.38000000000001 44.70099999999999 88.22500000000001 36.14399999999999 89.168 32.06499999999999 C 88.798 31.53499999999999 83.595 24.14499999999999 83.595 24.14499999999999 C 83.475 23.966999999999988 77.074 25.864999999999988 74.133 26.88199999999999 C 74.00099999999999 26.92799999999999 78.777 21.17199999999999 81.097 19.77899999999999 C 81.30699999999999 19.30199999999999 78.74199999999999 13.231999999999989 78.74199999999999 13.231999999999989 C 78.70599999999999 13.101999999999988 85.96499999999999 13.78499999999999 89.37899999999999 14.761999999999988 C 94.067 12.270999999999988 105.264 10.413999999999987 105.15799999999999 10.481999999999989 z M 68.34 57.104 C 68.155 57.321 67.915 57.561 67.99600000000001 57.866 C 68.83000000000001 61.019999999999996 70.18700000000001 63.997 71.763 66.989 L 73.034 68 C 75.37400000000001 69.774 77.70400000000001 71.566 80.137 73.218 C 80.45968448103545 73.4392102048361 80.8844568603677 73.44198132007872 81.21 73.22500000000001 C 84.223 71.248 87.253 69.26700000000001 89.91999999999999 66.75900000000001 C 88.90899999999999 62.530000000000015 87.957 58.21700000000001 87.77399999999999 53.814000000000014 C 87.76699999999998 53.64700000000001 87.67799999999998 53.43400000000001 87.56599999999999 53.39400000000001 L 76.51 49.489 C 73.563 51.849 70.74900000000001 54.277 68.34 57.104 z" stroke-linecap="round" />
</g>
<g transform="matrix(12.97 0 0 12.97 571.3 1139.32)"  >
<path style="stroke: none; stroke-width: 1; stroke-dasharray: none; stroke-linecap: butt; stroke-dashoffset: 0; stroke-linejoin: miter; stroke-miterlimit: 4; fill: rgb(228,231,244); fill-rule: evenodd; opacity: 1;" vector-effect="non-scaling-stroke"  transform=" translate(-96.38, -99.93)" d="M 121.625 17.585 C 121.684 17.502000000000002 124.869 24.012 125.809 27.32 C 132.389 31.794 135.821 35.981 135.94 36.098 C 135.776 36.24 128.141 35.79 128.161 35.916 C 128.688 39.351 129.151 42.831999999999994 129.251 46.337999999999994 C 129.20600000000002 46.337999999999994 129.032 46.349999999999994 129.024 46.337999999999994 C 129.024 46.337999999999994 121.299 35.337999999999994 120.962 35.55 C 117.306 35.827 113.864 36.568 110.339 37.376999999999995 C 110.364 37.370999999999995 110.275 37.349 110.21 37.270999999999994 C 112.187 34.888999999999996 114.231 32.58899999999999 115.99499999999999 30.068999999999996 C 116.14099999999999 29.859999999999996 106.58299999999998 20.676999999999996 106.67299999999999 20.682999999999996 C 110.88799999999999 20.920999999999996 114.88599999999998 22.317999999999998 118.835 23.673999999999996 C 119.01599999999999 23.735999999999997 121.55099999999999 17.686999999999998 121.625 17.584999999999994 z M 68.816 140.631 C 69.803 140.766 70.8 140.867 71.795 140.852 L 74.756 140.655 L 79.821 153.25300000000001 C 79.905 153.46400000000003 80.175 153.25300000000001 80.226 153.11200000000002 L 84.731 140.616 C 86.669 140.88000000000002 88.60499999999999 140.846 90.517 140.58700000000002 C 90.652 140.567 90.81099999999999 140.59500000000003 90.85199999999999 140.733 C 90.87595670292086 140.8160344601197 90.85840201755849 140.90552586981352 90.80485153794447 140.97335647732461 C 90.75130105833047 141.04118708483568 90.6683272250264 141.07903179878605 90.582 141.07500000000002 C 90.095 141.044 89.639 141.40900000000002 89.65799999999999 141.89100000000002 C 89.87099999999998 147.30100000000002 90.35099999999998 152.698 90.82799999999999 158.10200000000003 C 91.216 158.55300000000003 91.78599999999999 158.69600000000003 92.27899999999998 158.74800000000002 C 92.36899999999999 158.96900000000002 92.32499999999999 159.186 92.19999999999999 159.18 C 90.46799999999999 159.096 88.71099999999998 158.961 86.95599999999999 159.041 C 86.25899999999999 159.072 85.55899999999998 159.133 84.87199999999999 159.168 C 84.71799999999999 159.174 84.66099999999999 158.75400000000002 84.84499999999998 158.74 C 85.19899999999998 158.71300000000002 85.57499999999999 158.595 85.92599999999999 158.447 C 86.52599999999998 158.193 86.62099999999998 157.508 86.59799999999998 156.922 C 86.44499999999998 153.063 86.07699999999998 149.219 85.76999999999998 145.371 C 85.76299999999998 145.285 85.50899999999999 145.185 85.46899999999998 145.303 L 82.31599999999997 154.198 L 80.65199999999997 159.018 C 80.58899999999997 159.202 80.22199999999997 159.178 79.97999999999998 159.182 L 78.35999999999997 159.17999999999998 C 78.21699999999997 159.176 78.10299999999997 159.06099999999998 78.05199999999996 158.92799999999997 C 76.33399999999996 154.35799999999998 74.43399999999997 149.86199999999997 72.63399999999996 145.32599999999996 C 72.59399999999995 145.22399999999996 72.38499999999996 145.18099999999995 72.37199999999996 145.27299999999997 C 72.31299999999996 145.68899999999996 72.25499999999995 146.12099999999998 72.25699999999996 146.55399999999997 C 72.27399999999996 150.32899999999998 71.87899999999996 154.09699999999998 72.07899999999997 157.81599999999997 C 72.33299999999997 158.32399999999998 72.78499999999997 158.60899999999998 73.28599999999996 158.628 C 73.54999999999995 158.63799999999998 73.83899999999996 158.70399999999998 73.97199999999997 158.91899999999998 C 74.02699999999997 159.005 73.92199999999997 159.19599999999997 73.77999999999997 159.183 C 71.73812657960775 158.9819716253403 69.6816434746766 158.97795309460275 67.63899999999995 159.171 C 67.51399999999997 159.183 67.46999999999997 158.79399999999998 67.59899999999996 158.775 C 67.91899999999995 158.73000000000002 68.23299999999996 158.59900000000002 68.54599999999996 158.482 C 68.79799999999996 158.388 69.09799999999997 158.146 69.12199999999996 157.814 C 69.49399999999996 152.564 69.87899999999996 147.23399999999998 69.95399999999995 141.892 C 69.95799999999996 141.591 69.73099999999995 141.337 69.37199999999996 141.228 C 69.13799999999996 141.255 68.85199999999996 141.14000000000001 68.66199999999996 140.964 C 68.53799999999997 140.84799999999998 68.67699999999996 140.611 68.81599999999996 140.631 z M 43.325 140.67 C 43.427 140.654 43.544000000000004 140.69699999999997 43.579 140.76 C 43.62747517839752 140.8450200998705 43.62594991154115 140.94965958902247 43.57501728080496 141.0332306810876 C 43.52408465006876 141.11680177315267 43.431781966344374 141.16611671719852 43.334 141.16199999999998 C 42.885000000000005 141.15399999999997 42.457 141.41199999999998 42.313 141.83599999999998 C 42.159 142.295 42.160000000000004 142.789 42.161 143.27499999999998 C 42.172000000000004 148.16799999999998 42.159 153.06399999999996 42.33 157.95499999999998 C 42.345 158.367 42.741 158.66 43.16 158.65599999999998 C 43.297 158.65599999999998 43.43 158.69699999999997 43.541 158.777 C 43.614999999999995 158.832 43.650999999999996 158.933 43.595 159.03699999999998 C 43.57 159.08199999999997 43.498 159.19499999999996 43.424 159.18899999999996 C 41.293924824160136 158.99622889439587 39.14949258978084 159.027735088524 37.02599999999999 159.28299999999996 C 36.925 159.29499999999996 36.754999999999995 159.30999999999995 36.626999999999995 159.21099999999996 C 36.553999999999995 159.15399999999997 36.516999999999996 159.05299999999997 36.584999999999994 158.95099999999996 C 36.696999999999996 158.78299999999996 36.96399999999999 158.76499999999996 37.13099999999999 158.71499999999997 C 37.67999999999999 158.54899999999998 37.99399999999999 158.07799999999997 37.995999999999995 157.54699999999997 C 38.004 155.34399999999997 38.081999999999994 153.14299999999997 38.041 150.93799999999996 C 38.04 150.87699999999995 37.931999999999995 150.77399999999997 37.864999999999995 150.77399999999997 C 35.50299999999999 150.82899999999998 33.13399999999999 150.82499999999996 30.792999999999996 150.78599999999997 C 30.625999999999994 150.78199999999998 30.584999999999997 151.03399999999996 30.586999999999996 151.19999999999996 L 30.620999999999995 157.66699999999997 C 30.616999999999994 158.12199999999999 30.891999999999996 158.51299999999998 31.372999999999994 158.70399999999998 C 31.557999999999993 158.77599999999998 31.893999999999995 158.78199999999998 32.01599999999999 158.99699999999999 C 32.09199999999999 159.13199999999998 31.91899999999999 159.309 31.76299999999999 159.29399999999998 C 29.56199999999999 159.06199999999998 27.33899999999999 158.993 25.22199999999999 159.18699999999998 C 25.03599999999999 159.20299999999997 24.975999999999992 159.039 25.00099999999999 158.933 C 25.02099999999999 158.85299999999998 25.07399999999999 158.71599999999998 25.17399999999999 158.732 C 25.73499999999999 158.816 26.349999999999987 158.4 26.36299999999999 157.763 C 26.469999999999988 152.538 26.51499999999999 147.312 26.349999999999987 142.089 C 26.332999999999988 141.558 25.832999999999988 141.165 25.303999999999988 141.226 C 25.143999999999988 141.244 24.980999999999987 141.08 25.018999999999988 140.927 C 25.06399999999999 140.74699999999999 25.293999999999986 140.71599999999998 25.480999999999987 140.739 C 27.616999999999987 141.005 29.777999999999988 140.993 31.831999999999987 140.735 C 32.03199999999999 140.71 32.100999999999985 141.09 31.924999999999986 141.104 C 31.617999999999988 141.12900000000002 31.186999999999987 141.217 30.907999999999987 141.52 C 30.709999999999987 141.735 30.607999999999986 142.032 30.604999999999986 142.32500000000002 L 30.551999999999985 147.96 C 30.55033251697815 148.12861643795614 30.6853896170594 148.26680400062205 30.853999999999985 148.269 L 37.87099999999999 148.24200000000002 C 37.93399999999999 148.24200000000002 38.05999999999999 148.13100000000003 38.05899999999999 148.05800000000002 L 37.98899999999999 141.98000000000002 C 37.92899999999999 141.35500000000002 37.19499999999999 141.16000000000003 36.67399999999999 141.17300000000003 C 36.581999999999994 140.94400000000002 36.629999999999995 140.72200000000004 36.751999999999995 140.73500000000004 C 38.053 140.87400000000005 39.388 140.94600000000005 40.721999999999994 140.91100000000003 C 41.593999999999994 140.88700000000003 42.462999999999994 140.80100000000002 43.324999999999996 140.67000000000002 z M 168.773 140.498 C 169.031 140.459 169.293 140.441 169.531 140.457 C 169.597 140.63899999999998 169.53300000000002 140.846 169.371 140.904 C 169.12900000000002 140.99 168.824 140.98 168.59400000000002 141.156 C 168.14900000000003 141.49800000000002 168.121 142.11700000000002 168.19200000000004 142.65200000000002 C 168.21300000000002 142.804 168.04400000000004 143.25400000000002 168.07900000000004 143.365 C 168.27000000000004 143.982 168.14100000000005 144.619 168.13800000000003 145.24 L 168.13000000000002 158.978 C 167.11200000000002 159.029 166.09500000000003 158.97 165.11 158.935 L 156.626 146.427 C 156.183 145.78799999999998 155.747 145.15 155.27100000000002 144.57 C 155.21 144.498 155.054 144.57399999999998 155.05200000000002 144.662 C 154.90900000000002 148.889 155.06000000000003 153.121 155.163 157.35 C 155.179 157.963 155.75900000000001 158.403 156.37800000000001 158.399 C 156.43900000000002 158.399 156.622 158.409 156.679 158.424 C 156.872 158.479 156.915 158.901 156.724 158.877 C 154.95399999999998 158.662 153.093 158.705 151.279 158.916 C 151.15 158.932 151.115 158.639 151.256 158.44299999999998 C 151.762 158.492 152.27 158.19299999999998 152.526 157.59499999999997 L 152.585 141.84699999999998 C 152.437 141.22599999999997 151.80200000000002 140.94099999999997 151.333 140.92499999999998 C 151.147 140.91899999999998 151.21 140.511 151.415 140.54 C 153.296 140.798 155.29 140.79999999999998 157.284 140.57899999999998 L 165.31699999999998 152.575 C 165.37399999999997 152.659 165.46699999999998 152.743 165.55899999999997 152.708 C 165.62899999999996 152.679 165.71499999999997 152.599 165.71499999999997 152.542 C 165.72699999999998 148.995 165.75599999999997 145.452 165.60799999999998 141.915 C 165.42 141.224 164.69599999999997 140.837 164.08299999999997 140.97 C 163.90499999999997 141.007 163.79799999999997 140.726 163.88999999999996 140.548 C 163.93699999999995 140.458 164.10099999999997 140.433 164.24399999999997 140.458 C 165.73799999999997 140.71099999999998 167.26999999999998 140.72899999999998 168.77299999999997 140.498 z M 180.5 140.189 C 183.04351131082194 139.94237420550132 185.61065375081765 140.15681088596017 188.078 140.822 C 188.185 140.851 188.328 140.937 188.326 141.047 C 188.299 142.709 188.441 144.387 188.588 145.996 C 188.606 146.193 188.17 146.316 188.13299999999998 146.166 C 187.963 145.484 187.588 144.773 187.08599999999998 144.178 C 186.01799999999997 142.903 184.41199999999998 142.254 182.766 142.219 C 181.40099999999998 142.188 179.922 142.272 178.89499999999998 143.266 C 178.11999999999998 144.016 178.07899999999998 145.23499999999999 178.707 146.123 C 179.777 147.10299999999998 181.24599999999998 147.25799999999998 182.572 147.689 C 183.89000000000001 148.117 185.226 148.492 186.529 148.97 C 189.033 149.89 190.529 152.57 189.683 155.146 C 188.845 157.70299999999997 186.30599999999998 158.958 183.79999999999998 159.33399999999997 C 180.80399999999997 159.78499999999997 177.74099999999999 159.533 174.87599999999998 158.53699999999998 C 174.66099999999997 158.46099999999998 174.712 158.135 174.70799999999997 157.94299999999998 C 174.65699999999998 156.172 174.65299999999996 154.42299999999997 174.48299999999998 152.77499999999998 C 174.462 152.56399999999996 174.676 152.48799999999997 174.807 152.54099999999997 C 174.981 152.61099999999996 175.06699999999998 152.78499999999997 175.10199999999998 152.96699999999996 C 175.59199999999998 155.57099999999997 177.94199999999998 157.34999999999997 180.563 157.28299999999996 C 182.11999999999998 157.44099999999995 183.801 157.24799999999996 184.915 156.06199999999995 C 185.6995780190001 155.22160360008988 185.68415818787773 153.9126802211013 184.88 153.09099999999995 C 184.31799999999998 152.52099999999996 183.54999999999998 152.25299999999996 182.804 152.01299999999995 C 180.554 151.28999999999994 178.185 150.84899999999996 176.156 149.57199999999995 C 174.037 148.23599999999993 173.51000000000002 145.48199999999994 174.644 143.32199999999995 C 174.714 143.18899999999994 174.935 142.78899999999996 175.029 142.67399999999995 C 176.379 141.02899999999994 178.457 140.38499999999996 180.5 140.18899999999994 z M 12.78 138.619 C 15.071631459782196 138.38005288567692 17.38771846858793 138.5696125691209 19.609999999999992 139.178 C 19.673 139.196 19.764 139.282 19.762999999999998 139.34 C 19.715999999999998 141.268 19.845999999999997 143.19 19.945999999999998 145.11 C 19.956 145.29600000000002 19.554 145.454 19.476 145.198 C 19.267 144.51000000000002 18.942999999999998 143.684 18.342 143.038 C 16.511 141.067 13.660999999999998 140.93800000000002 11.291999999999998 141.864 C 10.775999999999998 142.067 10.298999999999998 142.364 9.889999999999999 142.729 C 6.636999999999999 145.651 6.4289999999999985 150.579 9.139999999999999 153.977 C 11.402999999999999 156.815 15.311 157.354 18.488999999999997 155.87 C 19.278999999999996 155.501 20.075999999999997 155.12 20.744999999999997 154.577 C 20.860999999999997 154.48499999999999 20.955 154.7 20.941 154.813 L 20.61 157.547 C 20.589 157.715 20.442 157.83599999999998 20.293 157.922 C 17.613 159.47899999999998 14.479 160.031 11.412999999999998 159.522 C 6.126999999999999 158.64499999999998 2.5909999999999993 153.84799999999998 2.847999999999999 148.58599999999998 C 3.076999999999999 143.898 6.432999999999999 140.00599999999997 10.963999999999999 138.93599999999998 C 11.561873370968199 138.7913277089467 12.1684705170361 138.6854404317972 12.779999999999989 138.61899999999997 z M 96.439 140.727 C 99.975 140.901 103.54499999999999 140.657 107.10199999999999 140.957 C 109.93799999999999 141.19899999999998 112.53799999999998 143.303 112.47099999999999 146.31799999999998 C 112.74099999999999 149.267 110.526 151.724 107.68799999999999 152.236 C 105.96099999999998 152.548 104.14699999999999 152.375 102.63899999999998 151.433 C 102.45099999999998 151.316 102.40099999999998 151.066 102.55899999999998 150.849 C 104.01399999999998 151.14 105.56899999999999 151.04399999999998 106.86599999999999 150.24499999999998 C 108.51999999999998 148.82099999999997 108.71599999999998 146.46399999999997 107.74099999999999 144.59499999999997 C 107.08099999999999 143.71599999999998 106.02199999999999 143.31399999999996 104.96199999999999 143.24099999999996 C 104.01657449302664 143.1814013024917 103.0689187611519 143.1650509043009 102.12199999999997 143.19199999999995 C 101.98699999999998 143.19599999999994 101.97699999999999 143.37599999999995 101.97599999999998 143.53399999999996 C 101.94499999999998 148.29799999999997 101.82799999999999 153.10799999999998 102.06599999999999 157.83899999999997 C 102.50399999999999 158.42899999999997 103.13199999999999 158.65899999999996 103.75199999999998 158.70599999999996 C 103.97299999999998 158.72399999999996 104.03899999999999 159.16899999999995 103.88499999999998 159.15899999999996 C 101.44899999999998 159.01399999999995 98.99599999999998 158.96999999999997 96.56499999999997 159.23699999999997 C 96.40999999999997 159.25499999999997 96.22499999999997 159.00499999999997 96.35699999999997 158.89499999999995 C 96.55799999999996 158.73099999999997 96.82399999999997 158.57699999999994 97.10999999999997 158.53399999999996 C 97.66299999999997 158.13899999999995 97.73099999999997 157.47499999999997 97.74099999999997 156.87599999999998 C 97.78799999999997 154.134 97.76099999999997 151.39399999999998 97.76999999999997 148.64899999999997 L 97.75999999999996 142.10799999999998 C 97.71899999999997 141.54199999999997 97.08799999999997 141.14499999999998 96.59799999999996 141.22899999999998 C 96.39399999999996 141.26399999999998 96.31399999999995 140.99499999999998 96.35999999999996 140.838 C 96.36499999999995 140.82 96.40099999999995 140.725 96.43899999999995 140.727 z M 135.912 140.248 C 138.949 139.893 142.131 140.713 144.201 143.111 C 147.422 146.843 147.56199999999998 152.31 144.49599999999998 156.15599999999998 C 141.242 159.718 135.82999999999998 160.771 131.79899999999998 157.90399999999997 C 127.50599999999997 154.85099999999997 126.36299999999997 148.99599999999998 129.05499999999998 144.49799999999996 C 130.516 142.05699999999996 133.117 140.57399999999996 135.91199999999998 140.24799999999996 z M 135.668 142.826 C 133.162 143.32399999999998 131.91 145.75799999999998 131.758 148.131 C 131.72365499731183 148.6651501206471 131.73737683924867 149.20130599339848 131.799 149.733 C 132.072 152.243 132.94 154.797 135.084 156.30700000000002 C 137.27700000000002 157.58800000000002 140.109 156.93 141.457 154.776 C 143.023 152.27 142.69899999999998 149.22500000000002 141.738 146.55100000000002 C 140.863 144.11300000000003 138.515 142.25000000000003 135.843 142.805 C 135.809 142.811 135.703 142.818 135.66799999999998 142.826 z M 126.943 167.723 C 127.107 167.70200000000003 127.28699999999999 167.66400000000002 127.435 167.752 C 127.533 167.811 127.511 168.066 127.382 168.04500000000002 C 127.034 167.983 126.634 168.26000000000002 126.47800000000001 168.64900000000003 C 126.322 172.05700000000002 126.48 175.47500000000002 126.27300000000001 178.91700000000003 C 126.14000000000001 180.37800000000004 125.24600000000001 181.11800000000002 124.644 181.42100000000002 C 122.519 182.49500000000003 120.072 182.41100000000003 117.789 181.96200000000002 L 116.482 181.51500000000001 C 114.902 180.794 114.015 179.132 114.066 177.394 L 114.025 168.84300000000002 C 114.025 168.556 113.82600000000001 168.3 113.58000000000001 168.181 L 113.58000000000001 167.851 C 114.52700000000002 167.939 115.48200000000001 167.999 116.43 167.927 L 117.94600000000001 167.72 C 117.88700000000001 167.95 117.71000000000001 168.079 117.53000000000002 168.158 C 117.30000000000001 168.25799999999998 117.10800000000002 168.49599999999998 117.11400000000002 168.736 C 117.17600000000002 172.09699999999998 116.81100000000002 175.46099999999998 117.13500000000002 178.81799999999998 C 117.41200000000002 180.12499999999997 118.71900000000002 180.832 119.98900000000002 180.66799999999998 C 120.80100000000002 180.74399999999997 121.63400000000001 180.623 122.27600000000002 180.18899999999996 C 122.81700000000002 179.82599999999996 123.11400000000002 179.21999999999997 123.21000000000002 178.59899999999996 C 123.39200000000002 177.43699999999995 123.39400000000002 176.25699999999995 123.36400000000002 175.08299999999997 C 123.30500000000002 172.65499999999997 123.51400000000002 170.22599999999997 123.24500000000002 167.78599999999997 C 124.46900000000002 167.91399999999996 125.71300000000002 167.88499999999996 126.94300000000001 167.72299999999998 z M 141.781 167.736 C 141.90800000000002 167.732 142.047 167.64399999999998 142.162 167.67 C 142.24 167.688 142.332 167.785 142.332 167.85 C 142.33829788496578 168.90795513756112 142.40138867414836 169.96480930979433 142.521 171.01600000000002 C 142.535 171.125 142.44899999999998 171.256 142.369 171.268 C 142.109 171.299 141.939 171.041 141.918 170.786 C 141.871 170.21 141.43 169.731 140.852 169.714 C 139.092 169.661 137.334 169.778 135.454 169.812 C 135.472 169.812 135.282 169.86100000000002 135.282 169.923 L 135.25900000000001 173.62800000000001 C 135.25900000000001 173.71800000000002 135.39800000000002 173.829 135.46400000000003 173.823 C 136.61800000000002 173.719 137.79400000000004 173.776 138.94600000000003 173.596 C 139.39900000000003 173.526 139.72500000000002 173.104 139.72500000000002 172.645 C 139.72700000000003 172.428 140.20700000000002 172.37900000000002 140.18200000000002 172.51600000000002 C 139.94400000000002 173.848 140.067 175.22500000000002 140.205 176.455 C 140.23000000000002 176.66400000000002 140.05300000000003 176.728 139.949 176.699 C 139.76500000000001 176.64800000000002 139.67000000000002 176.47400000000002 139.638 176.293 C 139.579 175.953 139.316 175.656 138.972 175.64100000000002 L 135.4 175.692 C 135.371 175.692 135.222 175.80100000000002 135.226 175.887 C 135.31 177.252 135.29 178.631 135.277 180 C 135.277 180.064 135.39 180.16 135.445 180.16 C 137.355 180.219 139.256 180.121 141.17 180.043 C 141.3016205510613 180.03120648049253 141.4270068521504 179.98153822272036 141.53099999999998 179.9 C 142.19699999999997 179.347 142.50599999999997 178.496 142.59699999999998 177.738 C 142.61999999999998 177.554 143.146 177.677 143.13599999999997 177.797 C 143.02499999999998 179.172 142.92499999999995 180.47299999999998 142.91099999999997 181.776 C 142.90899999999996 181.934 142.75699999999998 182.008 142.60199999999998 182.01000000000002 L 131.06699999999998 182.09400000000002 C 130.92399999999998 182.09600000000003 130.88699999999997 181.895 130.92799999999997 181.74200000000002 C 131.23416559377807 181.67283472403645 131.52611031668602 181.55138842563093 131.79099999999997 181.383 C 131.91799999999998 181.30100000000002 131.95899999999997 181.11700000000002 131.95899999999997 181.01600000000002 C 131.97499999999997 176.98900000000003 132.15999999999997 172.979 131.94499999999996 168.973 C 131.92742190202458 168.7572419741496 131.82315786821934 168.55781741108075 131.65601238615528 168.42025686778115 C 131.48886690409125 168.28269632448155 131.27310961672336 168.21874370101557 131.05799999999996 168.24300000000002 C 130.93699999999995 168.26100000000002 130.91299999999995 167.83100000000002 131.01899999999998 167.84100000000004 C 133.55199999999996 168.05600000000004 136.11499999999998 167.90900000000005 138.66899999999998 167.80600000000004 L 141.78099999999998 167.73600000000005 z M 64.105 167.875 L 75.271 167.891 C 75.379 167.891 75.538 167.959 75.535 168.039 C 75.499 169.13899999999998 75.619 170.23399999999998 75.72399999999999 171.32399999999998 C 75.73599999999999 171.44099999999997 75.323 171.48199999999997 75.30699999999999 171.32799999999997 C 75.24799999999999 170.74199999999996 74.92199999999998 170.10899999999998 74.27199999999999 169.84599999999998 C 72.517 169.78399999999996 70.72999999999999 169.61599999999999 68.934 169.73099999999997 C 68.804 169.74099999999996 68.476 169.68599999999998 68.475 169.84599999999998 C 68.469 171.045 68.497 172.30899999999997 68.404 173.50999999999996 C 68.396 173.62699999999995 68.56 173.69399999999996 68.643 173.69599999999997 L 72.118 173.69399999999996 C 72.542 173.67299999999997 72.866 173.30099999999996 72.90899999999999 172.88199999999995 C 72.92599999999999 172.70399999999995 73.07 172.53799999999995 73.19 172.55799999999994 C 73.413 172.59099999999992 73.373 172.83099999999993 73.364 172.97999999999993 C 73.28800000000001 174.17699999999994 73.266 175.36699999999993 73.364 176.55199999999994 C 73.37100000000001 176.64799999999994 73.286 176.72999999999993 73.188 176.72799999999992 C 73.07600000000001 176.7259999999999 72.955 176.65599999999992 72.946 176.54999999999993 C 72.901 175.98799999999991 72.42399999999999 175.56199999999993 71.86 175.54799999999992 C 70.77920637452624 175.52137058994907 69.69798325553832 175.51670296007987 68.61699999999993 175.5339999999999 C 68.468 175.5379999999999 68.423 175.7349999999999 68.415 175.88199999999992 C 68.340011638209 177.2555758579895 68.34836028386162 178.63243449901938 68.44000000000001 180.00499999999994 L 70.15400000000001 180.1049999999999 C 71.63000000000001 180.1459999999999 73.10600000000001 180.1089999999999 74.57900000000001 180.0049999999999 C 74.82000000000001 179.9869999999999 75.00800000000001 179.8019999999999 75.14500000000001 179.6049999999999 C 75.51200000000001 179.07799999999992 75.60700000000001 178.43499999999992 75.778 177.8649999999999 C 76.00500000000001 177.8299999999999 76.158 177.84499999999989 76.351 177.9119999999999 C 76.191 179.1989999999999 76.059 180.4859999999999 76.05 181.7769999999999 C 76.04899999999999 181.9199999999999 75.929 182.0479999999999 75.788 182.0469999999999 C 71.923 181.99599999999992 68.059 181.8909999999999 64.22 181.9159999999999 C 64.089 181.9159999999999 64.018 181.7659999999999 64.016 181.5879999999999 C 64.351 181.5099999999999 64.67800000000001 181.3669999999999 64.968 181.17399999999992 C 65.19200000000001 180.73799999999991 65.13000000000001 180.26399999999992 65.141 179.81299999999993 C 65.23100000000001 176.19999999999993 65.19000000000001 172.58399999999992 65.09100000000001 168.97299999999993 C 65.07700000000001 168.47699999999992 64.569 168.20199999999994 64.15200000000002 168.23099999999994 C 64.03300000000002 168.02699999999993 64.09000000000002 167.87499999999994 64.10500000000002 167.87499999999994 z M 102.373 167.547 C 104.125 167.361 105.875 167.71099999999998 107.51400000000001 168.391 C 107.75000000000001 168.643 107.668 169.01 107.67200000000001 169.33599999999998 C 107.69200000000001 170.23199999999997 107.742 171.12499999999997 107.83400000000002 172.004 C 107.61300000000001 172.045 107.40200000000002 171.94299999999998 107.34000000000002 171.75199999999998 C 106.98800000000001 170.61899999999997 106.14700000000002 169.64799999999997 104.96100000000001 169.36499999999998 L 103.47900000000001 169.09199999999998 C 103.00505403528916 169.12456837481457 102.53471135597823 169.19716038150767 102.07300000000001 169.309 C 99.61000000000001 169.891 98.21600000000001 172.266 98.221 174.70499999999998 C 98.229 177.08999999999997 99.285 179.63699999999997 101.789 180.27499999999998 C 102.996 180.58399999999997 104.281 180.265 105.08800000000001 179.43499999999997 C 105.27352146069889 179.0357923490867 105.38467369075349 178.60609409387567 105.41600000000001 178.16699999999997 C 105.46786378923431 177.4297284082496 105.41126085434095 176.68883642116342 105.248 175.96799999999996 C 105.215 175.82499999999996 105.107 175.70399999999995 104.973 175.55399999999997 C 106.489 175.65899999999996 107.957 175.62599999999998 109.401 175.378 C 109.485 175.36399999999998 109.575 175.37599999999998 109.684 175.458 C 109.29899999999999 175.726 108.946 175.976 108.618 176.132 C 108.405 176.234 108.33699999999999 176.538 108.33699999999999 176.745 L 108.33299999999998 181.651 C 108.00612604475621 181.85463563377962 107.58974234735307 181.8456094084825 107.27199999999999 181.62800000000001 C 107.06099999999999 181.286 106.99099999999999 180.91500000000002 106.89699999999999 180.566 C 106.77799999999999 180.566 106.47699999999999 180.52100000000002 106.428 180.566 C 104.875 182.02700000000002 102.682 182.451 100.619 182.043 C 97.166 181.357 94.695 178.18 95.218 174.65 C 94.989 171.461 97.311 168.871 100.235 167.966 C 100.93240531608616 167.75738205650063 101.64843954094994 167.617055424032 102.373 167.547 z M 116.432 140.605 C 118.49439824280292 140.91415000481126 120.59160630443141 140.91077882965996 122.653 140.595 C 122.745 140.581 122.83300000000001 140.657 122.76400000000001 140.736 C 122.58000000000001 140.945 122.35400000000001 141.11499999999998 122.15700000000001 141.32399999999998 C 122.02000000000001 141.469 121.86000000000001 141.70899999999997 121.86000000000001 141.933 L 121.85800000000002 157.73999999999998 C 121.86000000000001 157.97799999999998 122.09800000000001 158.189 122.32900000000002 158.36299999999997 C 122.19800000000002 158.55199999999996 121.95800000000003 158.59499999999997 121.86600000000003 158.60299999999998 C 120.23160864480693 158.71920282463577 118.59537680311014 158.80788205647997 116.95800000000001 158.86899999999997 C 116.92700000000002 158.78299999999996 116.94000000000003 158.64599999999996 117.06200000000003 158.61899999999997 C 117.45985645310535 158.5208825632597 117.7448592747383 158.1714585029744 117.76100000000002 157.76199999999997 C 117.84500000000003 153.60799999999998 117.72000000000003 142.08599999999998 117.72000000000003 142.08599999999998 C 117.69256908797477 141.53186593698567 117.24358116619496 141.09202325900546 116.68900000000002 141.076 C 116.53700000000002 141.072 116.39200000000002 141.004 116.32200000000002 140.869 C 116.27900000000001 140.787 116.31200000000001 140.588 116.43200000000002 140.605 z M 50.058 167.725 C 51.797 167.983 53.664 167.957 55.478 167.696 C 55.588 167.68 55.699 167.84799999999998 55.667 167.952 C 55.644 168.028 55.554 168.126 55.479 168.126 C 55.163 168.132 54.853 168.26500000000001 54.567 168.448 C 54.404 168.553 54.331 168.817 54.325 169.038 C 54.233000000000004 172.649 54.295 176.263 54.300000000000004 179.786 C 54.300000000000004 180.018 54.556000000000004 180.03 54.78 180.034 C 56.305 180.04999999999998 57.897 179.97 59.486000000000004 179.90099999999998 C 60.318000000000005 179.70399999999998 60.798 178.94599999999997 60.993 178.16699999999997 C 61.047000000000004 177.95399999999998 61.101 177.71599999999998 61.277 177.61599999999999 C 61.398 177.54799999999997 61.543 177.58499999999998 61.728 177.67299999999997 C 61.487 179.02299999999997 61.189 180.37399999999997 61.15 181.76299999999998 C 61.147999999999996 181.84099999999998 60.998 181.91699999999997 60.888999999999996 181.91499999999996 C 57.263 181.90299999999996 53.632999999999996 181.85099999999997 50.01 181.96799999999996 C 49.885999999999996 181.97199999999995 49.806 181.67899999999997 49.943999999999996 181.65199999999996 C 50.22 181.59099999999995 50.517999999999994 181.42299999999994 50.75299999999999 181.25399999999996 C 50.87799999999999 181.16399999999996 50.91799999999999 180.98799999999997 50.92099999999999 180.88699999999997 C 51.04599999999999 176.78899999999996 50.99399999999999 172.70699999999997 50.97299999999999 168.72099999999998 C 50.80358566449114 168.3430253170585 50.43208447680096 168.09600620273048 50.017999999999994 168.08599999999998 C 49.836999999999996 168.082 49.870999999999995 167.69699999999997 50.05799999999999 167.725 z M 52.935 140.672 C 54.685 140.981 56.531000000000006 140.96099999999998 58.313 140.703 C 60.117000000000004 146.449 62.068000000000005 152.049 64.089 157.619 C 64.317 158.248 64.947 158.611 65.54599999999999 158.736 C 65.601 158.982 65.52099999999999 159.195 65.353 159.177 C 63.001 158.915 60.574 158.97 58.172 159.165 C 58.016999999999996 159.177 57.924 158.813 58.186 158.74699999999999 C 58.511 158.66699999999997 58.987 158.559 59.327 158.218 C 59.497 158.048 59.571999999999996 157.808 59.542 157.57 C 59.369 156.17499999999998 58.802 154.882 58.422000000000004 153.541 C 58.372152849244834 153.38475984488338 58.22493352298969 153.2803605442703 58.06100000000001 153.285 C 56.233000000000004 153.32399999999998 54.40500000000001 153.131 52.57800000000001 153.305 C 52.43607546315773 153.32183596150358 52.31615429367249 153.41808337261148 52.26900000000001 153.553 C 51.76400000000001 154.84199999999998 51.210000000000015 156.114 50.82400000000001 157.446 C 50.70000000000001 157.87199999999999 50.91500000000001 158.339 51.33300000000001 158.487 C 51.63600000000001 158.59199999999998 51.93500000000001 158.714 52.19900000000001 158.827 C 52.30400000000001 158.874 52.17600000000001 159.186 52.04400000000001 159.167 C 50.166833526688436 158.87843270874615 48.25787487861881 158.86192971408215 46.376 159.118 C 46.22200000000001 159.13899999999998 46.128000000000014 158.956 46.155000000000015 158.88 C 46.22600000000001 158.679 46.411000000000016 158.589 46.59300000000002 158.55599999999998 C 46.83024228639149 158.51855430003596 47.04456349500588 158.39281919098218 47.19300000000002 158.20399999999998 C 48.07800000000002 157.00499999999997 48.43900000000002 155.54799999999997 49.01000000000002 154.194 C 50.70600000000002 150.17399999999998 52.44000000000002 146.16899999999998 53.94800000000002 142.075 C 53.9970945949672 141.93167092859235 53.9868937517957 141.7746679798317 53.91966536295621 141.63889668058323 C 53.85243697411673 141.50312538133477 53.733753093981186 141.39983879112614 53.590000000000025 141.35199999999998 C 53.309000000000026 141.25999999999996 53.04200000000002 141.13299999999998 52.84700000000002 140.96299999999997 C 52.76000000000002 140.88699999999997 52.831000000000024 140.65399999999997 52.935000000000024 140.67199999999997 z M 53.36 150.766 C 53.293 150.94 53.258 151.25 53.355 151.248 C 54.708 151.22799999999998 56.038999999999994 151.32 57.421 151.29899999999998 C 57.454 151.29699999999997 57.653999999999996 151.15399999999997 57.632 151.08399999999997 C 56.94312734641442 148.96297433218592 56.381133255467134 146.80281998023227 55.949 144.615 C 55.924 144.48399999999998 55.671 144.43099999999998 55.626 144.576 C 54.973 146.654 54.150999999999996 148.70499999999998 53.36 150.766 z M 83.184 167.842 C 84.497 168.08200000000002 85.883 168.121 87.27499999999999 167.869 C 87.463 168.203 87.58099999999999 168.588 87.705 168.969 L 91.697 180.82999999999998 C 91.822 181.164 92.119 181.42399999999998 92.426 181.61499999999998 C 92.514 181.67399999999998 92.386 181.82399999999998 92.374 181.82399999999998 L 88.704 181.92399999999998 C 88.261 181.98299999999998 87.827 182.15099999999998 87.36 182.18999999999997 C 87.267 182.19799999999998 87.155 182.16299999999998 87.119 182.07099999999997 C 87.071 181.94799999999998 87.107 181.80099999999996 87.219 181.78599999999997 C 87.61699999999999 181.73699999999997 87.985 181.53799999999998 88.323 181.16299999999998 C 88.267 180.00099999999998 87.722 178.892 87.32199999999999 177.66899999999998 C 85.82499999999999 177.659 84.30599999999998 177.68999999999997 82.734 177.72199999999998 C 82.329 178.73199999999997 81.90599999999999 179.76299999999998 81.59299999999999 180.831 C 81.52699999999999 181.058 81.54299999999999 181.362 81.707 181.468 C 81.978 181.646 82.249 181.798 82.518 181.831 C 82.666 181.84699999999998 82.62 182.202 82.462 182.179 C 81.01546593440366 181.97667132691862 79.5479027915084 181.97532524744796 78.101 182.175 C 77.964 182.19500000000002 77.885 182.025 77.883 181.83100000000002 C 78.282 181.669 78.756 181.52 78.947 181.08100000000002 C 80.687 177.07500000000002 82.291 173.013 83.958 169.00500000000002 C 83.928 168.59900000000002 83.614 168.29800000000003 83.263 168.30400000000003 C 83.11500000000001 168.30600000000004 83.04100000000001 168.11600000000004 83.08 167.96600000000004 C 83.08 167.96100000000004 83.135 167.83200000000005 83.184 167.84200000000004 z M 83.499 175.693 C 83.45899999999999 175.79500000000002 83.45299999999999 176.084 83.63199999999999 176.08800000000002 L 86.47899999999998 176.09000000000003 C 86.58699999999999 176.08800000000002 86.75499999999998 175.97700000000003 86.72099999999999 175.87700000000004 C 86.19899999999998 174.31100000000004 85.749 172.68800000000005 85.46199999999999 171.10400000000004 C 85.43999999999998 170.98500000000004 85.20599999999999 171.06900000000005 85.17299999999999 171.17400000000004 C 84.69599999999998 172.68600000000004 84.11299999999999 174.16000000000003 83.49899999999998 175.69300000000004 z" stroke-linecap="round" />
</g>
<g transform="matrix(12.97 0 0 12.97 568.1 1415.78)"  >
<path style="stroke: none; stroke-width: 1; stroke-dasharray: none; stroke-linecap: butt; stroke-dashoffset: 0; stroke-linejoin: miter; stroke-miterlimit: 4; fill: rgb(0,0,0); fill-rule: nonzero; opacity: 1;" vector-effect="non-scaling-stroke"  transform=" translate(-96.13, -121.25)" d="M 128.979 122.369 C 124.7021811629996 117.97849252358762 119.59019653829756 114.48799474126695 113.94399999999999 112.10299999999998 C 108.30558072670595 109.72992383669866 102.24844878037518 108.5119006720573 96.13099999999999 108.521 C 90.01466257571019 108.5113165447219 83.95852621479615 109.72866456112124 78.32099999999997 112.10100000000001 C 72.67470752176304 114.48545264318597 67.56241746141315 117.97524681580045 63.285000000000025 122.365 L 62.16800000000001 121.279 C 66.59171675426158 116.74070659212693 71.8783903651196 113.13295730376018 77.71699999999998 110.668 C 83.54525785532378 108.2128707031814 89.80674544491247 106.95166415002703 96.131 106.95899999999997 C 102.65700000000001 106.95899999999999 108.88000000000001 108.27899999999998 114.54800000000002 110.66999999999999 C 120.38724689469328 113.13469313812283 125.67409360698593 116.743240578959 130.09699999999998 121.28299999999996 L 128.979 122.36899999999999 z M 115.686 135.523 C 113.19717233485129 132.80731007085797 110.17167103107096 130.63787070041514 106.801 129.152 C 103.43706470904753 127.67449204408788 99.80210645384481 126.91432837636442 96.12799999999997 126.91999999999999 C 92.326 126.91999999999999 88.714 127.719 85.44800000000001 129.15599999999998 C 82.07555998451933 130.6433972732305 79.04918952006068 132.81569582085982 76.56099999999999 135.53499999999997 L 75.408 134.47799999999998 C 78.04359332050785 131.59998860885602 81.24874447246204 129.3013517329858 84.82 127.728 C 88.38330126908315 126.15947090081481 92.23475281321275 125.35191946721636 96.128 125.35699999999999 C 100.14500000000001 125.35699999999999 103.96900000000001 126.20299999999999 107.42800000000001 127.72399999999999 C 110.99613939018332 129.29603724046237 114.1985450598109 131.59261570026334 116.832 134.468 L 115.686 135.523 z" stroke-linecap="round" />
</g>
<g transform="matrix(12.97 0 0 12.97 542.55 1418.12)"  >
<path style="stroke: none; stroke-width: 1; stroke-dasharray: none; stroke-linecap: butt; stroke-dashoffset: 0; stroke-linejoin: miter; stroke-miterlimit: 4; fill: rgb(0,0,0); fill-rule: evenodd; opacity: 1;" vector-effect="non-scaling-stroke"  transform=" translate(-94.16, -121.43)" d="M 74.396 117.816 L 77.796 122.21600000000001 C 79.781 124.786 78.71600000000001 127.025 76.58900000000001 128.669 C 74.33800000000001 130.40900000000002 71.90300000000002 130.61800000000002 70.049 128.22 L 66.64 123.80799999999999 L 68.574 122.314 L 72.018 126.77099999999999 C 72.879 127.88599999999998 74.205 127.93299999999999 75.319 127.07199999999999 C 76.343 126.28099999999999 76.87400000000001 125.01699999999998 75.802 123.63099999999999 L 72.46400000000001 119.31099999999998 L 74.39600000000002 117.81599999999997 z M 93.311 121.686 L 86.244 123.19900000000001 L 84.189 113.61700000000002 L 91.16 112.12500000000001 L 91.536 113.88100000000001 L 86.955 114.86100000000002 L 87.385 116.87100000000002 L 91.75500000000001 115.93600000000002 L 92.132 117.69100000000002 L 87.762 118.62700000000002 L 88.255 120.93200000000003 L 92.935 119.93000000000004 L 93.311 121.68600000000004 z M 107.736 115.17 L 103.504 114.346 L 103.086 116.49000000000001 L 107.318 117.31200000000001 L 106.977 119.07600000000001 L 102.744 118.254 L 101.977 122.203 L 99.578 121.738 L 101.447 112.117 L 108.078 113.406 L 107.736 115.17 z M 118.344 125.371 L 115.86399999999999 123.652 L 119.216 121.34100000000001 L 118.344 125.37100000000001 z M 121.684 120.20299999999999 L 119.358 118.58999999999999 L 110.52600000000001 124.39099999999999 L 112.65100000000001 125.86599999999999 L 114.358 124.68799999999999 L 117.96000000000001 127.18599999999999 L 117.51700000000001 129.239 L 119.677 130.739 L 121.68400000000001 120.203 z" stroke-linecap="round" />
</g>
<g transform="matrix(NaN NaN NaN NaN 0 0)"  >
<g style=""   >
</g>
</g>
<g transform="matrix(NaN NaN NaN NaN 0 0)"  >
<g style=""   >
</g>
</g>
<g transform="matrix(NaN NaN NaN NaN 0 0)"  >
<g style=""   >
</g>
</g>
<g transform="matrix(NaN NaN NaN NaN 0 0)"  >
<g style=""   >
</g>
</g>
<g transform="matrix(NaN NaN NaN NaN 0 0)"  >
<g style=""   >
</g>
</g>
<g transform="matrix(NaN NaN NaN NaN 0 0)"  >
<g style=""   >
</g>
</g>
<g transform="matrix(NaN NaN NaN NaN 0 0)"  >
<g style=""   >
</g>
</g>
<g transform="matrix(NaN NaN NaN NaN 0 0)"  >
<g style=""   >
</g>
</g>
<g transform="matrix(NaN NaN NaN NaN 0 0)"  >
<g style=""   >
</g>
</g>
<g transform="matrix(NaN NaN NaN NaN 0 0)"  >
<g style=""   >
</g>
</g>
<g transform="matrix(NaN NaN NaN NaN 0 0)"  >
<g style=""   >
</g>
</g>
<g transform="matrix(NaN NaN NaN NaN 0 0)"  >
<g style=""   >
</g>
</g>
<g transform="matrix(NaN NaN NaN NaN 0 0)"  >
<g style=""   >
</g>
</g>
<g transform="matrix(NaN NaN NaN NaN 0 0)"  >
<g style=""   >
</g>
</g>
<g transform="matrix(NaN NaN NaN NaN 0 0)"  >
<g style=""   >
</g>
</g>
<g transform="matrix(NaN NaN NaN NaN 0 0)"  >
<g style=""   >
</g>
</g>
<g transform="matrix(NaN NaN NaN NaN 0 0)"  >
<g style=""   >
</g>
</g>
<g transform="matrix(NaN NaN NaN NaN 0 0)"  >
<g style=""   >
</g>
</g>
</svg>
