<?xml version="1.0" encoding="UTF-8" standalone="no" ?>
<!DOCTYPE svg PUBLIC "-//W3C//DTD SVG 1.1//EN" "http://www.w3.org/Graphics/SVG/1.1/DTD/svg11.dtd">
<svg xmlns="http://www.w3.org/2000/svg" xmlns:xlink="http://www.w3.org/1999/xlink" version="1.1" width="1080" height="1080" viewBox="0 0 1080 1080" xml:space="preserve">
<desc>Created with Fabric.js 5.2.4</desc>
<defs>
</defs>
<rect x="0" y="0" width="100%" height="100%" fill="transparent"></rect>
<g transform="matrix(1 0 0 1 540 540)" id="b6f6a80b-4d0d-4028-a770-e7369c7e1c63"  >
<rect style="stroke: none; stroke-width: 1; stroke-dasharray: none; stroke-linecap: butt; stroke-dashoffset: 0; stroke-linejoin: miter; stroke-miterlimit: 4; fill: rgb(255,255,255); fill-rule: nonzero; opacity: 1; visibility: hidden;" vector-effect="non-scaling-stroke"  x="-540" y="-540" rx="0" ry="0" width="1080" height="1080" />
</g>
<g transform="matrix(1 0 0 1 540 540)" id="8841ee6a-e81c-4602-900f-09466887391b"  >
</g>
<g transform="matrix(0 0 0 0 0 0)"  >
<g style=""   >
</g>
</g>
<g transform="matrix(0 0 0 0 0 0)"  >
<g style=""   >
</g>
</g>
<g transform="matrix(0 0 0 0 0 0)"  >
<g style=""   >
</g>
</g>
<g transform="matrix(0 0 0 0 0 0)"  >
<g style=""   >
</g>
</g>
<g transform="matrix(0 0 0 0 0 0)"  >
<g style=""   >
</g>
</g>
<g transform="matrix(1 0 0 1 652.35 540)"  >
<path style="stroke: rgb(240,240,240); stroke-width: 0; stroke-dasharray: none; stroke-linecap: butt; stroke-dashoffset: 0; stroke-linejoin: miter; stroke-miterlimit: 4; fill: rgb(217,217,217); fill-rule: nonzero; opacity: 1;" vector-effect="non-scaling-stroke"  transform=" translate(-312, -149.8)" d="M 61.6 286.8 L 0 299.6 Q 10.4 244.4 20.4 191.2 Q 24 168.8 28.4 144.6 Q 32.8 120.4 36.8 96.8 Q 40.8 73.2 44.4 51 Q 48 28.8 50.8 10.4 L 115.6 6 Q 108.8 34 102.2 64.4 C 98.1800637943873 82.89197357602615 94.34786652539783 101.42426089093405 90.70399999999991 119.9939999999988 C 90.46847100845532 121.19583148759976 90.23380428139612 122.39783179694186 90.00000000000027 123.6000000000005 L 129.6 119.2 Q 135.2 90.8 139.6 64.2 Q 144 37.6 151.2 9.2 Q 160.4 7.6 171.6 6.6 Q 182.8 5.6 192.4 4.8 Q 199 4.25 204.182 3.795 C 205.65486213409025 3.6655288241353623 207.1275304371961 3.533862011159449 208.60000000000036 3.3999999999997907 L 215.2 2.8 C 213.010064317025 9.863857627780781 210.97292278892465 16.974181724060102 209.08999999999986 24.12600000000025 C 207.50657864251917 30.128782609454248 206.00975652510456 36.15407502596905 204.59999999999988 42.20000000000053 Q 199.6 63.6 194.8 86.6 Q 190 109.6 185.6 133.2 Q 181.2 156.8 177.6 178 Q 168.8 228.8 161.2 282 L 98.8 289.2 C 101.96950779383138 274.60662804926267 104.86833867627378 259.9557800758388 107.49500000000016 245.25500000000045 C 107.66458085836979 244.3035544205634 107.83291433635374 243.35188693612128 108.00000000000034 242.39999999999984 Q 112 223.2 116.2 202.4 Q 119.088 188.1 121.124 176.636 C 121.70728551169148 173.36157583509973 122.26596793782582 170.0828166802916 122.79999999999993 166.79999999999978 L 84 170.4 Q 81.2 185.6 77.4 205.6 Q 73.6 225.6 70.4 243.6 L 61.6 286.8 Z M 240.8 289.6 L 176 299.2 Q 188 243.2 198.4 190.4 C 200.8066889317786 176.68659332155914 203.24202758078212 162.9782300666673 205.7060000000005 149.27500000000114 C 206.0701019668765 147.24989834820488 206.43476864771935 145.22489826947384 206.7999999999973 143.2000000000045 Q 211.2 118.8 215 94.8 Q 218.8 70.8 221.8 48.2 Q 224.8 25.6 226.4 7.2 C 229.44843733017956 7.463391034830318 232.49923306929017 7.69873432501953 235.55200000000008 7.905999999999961 Q 241.038 8.281 247.2 8.6 Q 258.8 9.2 268.8 10 Q 280.8 10.8 292.8 10.8 C 292.7259793085747 11.100310109475535 292.65630535725654 11.401674951540766 292.591 11.704000000000002 Q 292.213 13.431 291.6 16.8 Q 291.05 19.825 290.311 23.701 C 290.0756981132901 24.934325795147615 289.8386978885567 26.167326964331313 289.6000000000002 27.3999999999999 Q 288.4 33.6 287 41.2 Q 285.6 48.8 284 56.4 L 276.8 96 L 279.2 95.6 Q 282.263 90.7 287.318 82.869 C 288.409898185697 81.17797340942678 289.50389903175255 79.48830543603977 290.5999999999999 77.80000000000004 Q 298 66.4 306 53.6 Q 314 40.8 321.6 29 Q 326.825 20.888 330.916 14.382 C 332.08384018798404 12.525402493936879 333.24518063028114 10.664724437420631 334.3999999999998 8.800000000000177 Q 354.4 7.2 374.4 5.2 Q 394.4 3.2 414.4 0 Q 395.6 25.2 378 49.6 C 373.1194251369065 56.28269617607168 368.3104832865728 63.01741489243779 363.5740000000005 69.80299999999963 C 363.2490197481828 70.26844795402184 362.92435300788304 70.73411472629944 362.5999999999996 71.20000000000027 Q 354.8 82.4 347.2 93.2 Q 339.6 104 333 114 Q 326.4 124 321.2 132.4 Q 330 172.8 342 210.4 Q 354 248 366.4 287.2 Q 357.2 286.8 347.6 286.6 Q 338 286.4 328.8 286.4 Q 317.2 286.4 306.4 286.6 Q 295.6 286.8 284 287.2 Q 280.4 261.2 276.2 232.6 Q 272 204 268.4 178 L 261.2 186.4 Q 259.275 194.65 257.066 205.547 C 256.36144298436056 209.02817382649548 255.67276915292265 212.5125434102435 255.00000000000017 216.00000000000054 Q 251.6 233.6 248.4 250 Q 244.8 269.2 240.8 289.6 Z M 490 11.2 L 624 4.4 L 612.4 53.6 L 549.6 53.6 L 537.2 124.8 Q 549.6 124.4 560.8 124.4 L 579.6 124.4 Q 589.2 124.4 594.4 124 Q 593.2 135.2 591.4 146 Q 589.6 156.8 588 167.6 Q 584.019 167.6 577.458 167.483 C 576.0386265675337 167.45743021274149 574.61929168529 167.42976351588226 573.1999999999998 167.39999999999992 Q 563.6 167.2 553.4 166.8 Q 543.2 166.4 530.4 166 L 512 284 Q 498.4 286.4 485.2 289.2 Q 474 291.2 460.8 294 C 457.1504607237921 294.7730447657702 453.5047498651671 295.56405435409596 449.8630000000004 296.37300000000005 Q 443.225 297.85 437.6 299.2 Q 442.4 282 447 260.6 Q 451.6 239.2 456.2 215.6 Q 460.8 192 465 167.8 Q 469.2 143.6 473.2 121.2 Q 481.6 68 490 11.2 Z" stroke-linecap="round" />
</g>
<g transform="matrix(0 0 0 0 0 0)"  >
<g style=""   >
</g>
</g>
<g transform="matrix(0 0 0 0 0 0)"  >
<g style=""   >
</g>
</g>
</svg>