<?xml version="1.0" encoding="UTF-8" standalone="no" ?>
<!DOCTYPE svg PUBLIC "-//W3C//DTD SVG 1.1//EN" "http://www.w3.org/Graphics/SVG/1.1/DTD/svg11.dtd">
<svg xmlns="http://www.w3.org/2000/svg" xmlns:xlink="http://www.w3.org/1999/xlink" version="1.1" width="1080" height="1080" viewBox="0 0 1080 1080" xml:space="preserve">
<desc>Created with Fabric.js 5.2.4</desc>
<defs>
</defs>
<g transform="matrix(1 0 0 1 540 540)" id="b6f6a80b-4d0d-4028-a770-e7369c7e1c63"  >
<rect style="stroke: none; stroke-width: 1; stroke-dasharray: none; stroke-linecap: butt; stroke-dashoffset: 0; stroke-linejoin: miter; stroke-miterlimit: 4; fill: rgb(255,255,255); fill-rule: nonzero; opacity: 1; visibility: hidden;" vector-effect="non-scaling-stroke"  x="-540" y="-540" rx="0" ry="0" width="1080" height="1080" />
</g>
<g transform="matrix(1 0 0 1 540 540)" id="8841ee6a-e81c-4602-900f-09466887391b"  >
</g>
<g transform="matrix(0.98 0.18 -0.18 0.98 540 540)"  >
<g style="" vector-effect="non-scaling-stroke"   >
		<g transform="matrix(0.13 0 0 -0.13 -29.7 -195.36)"  >
<path style="stroke: none; stroke-width: 1; stroke-dasharray: none; stroke-linecap: butt; stroke-dashoffset: 0; stroke-linejoin: miter; stroke-miterlimit: 4; fill: rgb(237,233,232); fill-opacity: 0.79; fill-rule: nonzero; opacity: 1;" vector-effect="non-scaling-stroke"  transform=" translate(-1230.47, -3665)" d="M 1307 3759 C 1322 3744 1303 3700 1283 3700 C 1268 3700 1150 3644 1136 3630 C 1127 3621 1147 3560 1158 3560 C 1161 3560 1173 3569 1184 3579 C 1209 3602 1280 3640 1297 3640 C 1315 3640 1321 3655 1326 3715 C 1329 3762 1327 3770 1313 3770 C 1300 3770 1299 3767 1307 3759 z" stroke-linecap="round" />
</g>
		<g transform="matrix(0.13 0 0 -0.13 -10.42 -203.68)"  >
<path style="stroke: none; stroke-width: 1; stroke-dasharray: none; stroke-linecap: butt; stroke-dashoffset: 0; stroke-linejoin: miter; stroke-miterlimit: 4; fill: rgb(237,233,232); fill-opacity: 0.79; fill-rule: nonzero; opacity: 1;" vector-effect="non-scaling-stroke"  transform=" translate(-1375.13, -3727.4)" d="M 1357 3763 C 1346 3752 1349 3705 1362 3692 C 1378 3676 1400 3695 1400 3724 C 1400 3756 1373 3780 1357 3763 z M 1386 3728 C 1384 3696 1360 3693 1360 3724 C 1360 3739 1366 3750 1374 3750 C 1381 3750 1387 3741 1386 3728 z" stroke-linecap="round" />
</g>
		<g transform="matrix(0.13 0 0 -0.13 -2.39 -203.36)"  >
<path style="stroke: none; stroke-width: 1; stroke-dasharray: none; stroke-linecap: butt; stroke-dashoffset: 0; stroke-linejoin: miter; stroke-miterlimit: 4; fill: rgb(237,233,232); fill-opacity: 0.79; fill-rule: nonzero; opacity: 1;" vector-effect="non-scaling-stroke"  transform=" translate(-1435.32, -3725.02)" d="M 1427 3759 C 1435 3751 1435 3741 1427 3724 C 1416 3698 1432 3668 1447 3685 C 1452 3689 1449 3695 1443 3697 C 1433 3700 1433 3707 1441 3722 C 1453 3744 1446 3770 1428 3770 C 1419 3770 1419 3767 1427 3759 z" stroke-linecap="round" />
</g>
		<g transform="matrix(0.13 0 0 -0.13 16.19 -195.38)"  >
<path style="stroke: none; stroke-width: 1; stroke-dasharray: none; stroke-linecap: butt; stroke-dashoffset: 0; stroke-linejoin: miter; stroke-miterlimit: 4; fill: rgb(237,233,232); fill-opacity: 0.79; fill-rule: nonzero; opacity: 1;" vector-effect="non-scaling-stroke"  transform=" translate(-1574.65, -3665.14)" d="M 1477 3764 C 1465 3752 1469 3715 1486 3682 C 1496 3661 1517 3643 1548 3630 C 1574 3618 1608 3597 1623 3582 C 1651 3555 1652 3555 1666 3575 C 1694 3612 1680 3633 1600 3672 C 1538 3703 1524 3714 1520 3737 C 1515 3764 1492 3778 1477 3764 z M 1510 3723 C 1510 3716 1503 3710 1495 3710 C 1480 3710 1474 3741 1487 3753 C 1495 3761 1510 3741 1510 3723 z" stroke-linecap="round" />
</g>
		<g transform="matrix(0.13 0 0 -0.13 0 -8.61)"  >
<path style="stroke: none; stroke-width: 1; stroke-dasharray: none; stroke-linecap: butt; stroke-dashoffset: 0; stroke-linejoin: miter; stroke-miterlimit: 4; fill: rgb(237,233,232); fill-opacity: 0.79; fill-rule: nonzero; opacity: 1;" vector-effect="non-scaling-stroke"  transform=" translate(-1453.26, -2264.34)" d="M 1349 3632 C 1270 3612 1188 3556 1142 3492 C 1091 3420 1078 3383 1077 3295 C 1076 3224 1079 3208 1107 3155 C 1155 3062 1255 2980 1320 2980 C 1335 2980 1340 2975 1338 2963 C 1331 2929 1232 2969 1163 3033 L 1120 3072 L 1065 3046 C 1011 3019 1010 3018 1024 2992 C 1032 2977 1054 2950 1074 2931 L 1109 2897 L 1130 2923 C 1161 2962 1180 2980 1191 2980 C 1206 2980 1201 2969 1170 2933 C 1135 2893 1133 2880 1160 2873 C 1190 2865 1184 2853 1145 2847 C 1098 2839 958 2772 885 2721 C 725 2612 611 2465 517 2250 C 451 2097 433 1837 479 1666 C 560 1356 750 1120 1022 990 C 1099 953 1135 940 1255 908 C 1300 896 1552 891 1620 902 C 1754 922 1966 1017 2071 1103 C 2147 1166 2262 1290 2295 1346 C 2369 1468 2424 1612 2446 1745 C 2458 1812 2454 2011 2440 2075 C 2384 2338 2252 2550 2055 2695 C 1961 2764 1912 2791 1802 2835 C 1713 2870 1708 2871 1689 2854 C 1667 2834 1664 2807 1683 2793 C 1689 2788 1720 2776 1750 2766 C 1892 2718 1992 2654 2111 2532 C 2268 2372 2343 2204 2375 1941 C 2382 1882 2364 1733 2338 1640 C 2215 1190 1760 904 1295 985 C 1016 1034 763 1222 637 1475 C 564 1622 539 1732 541 1895 C 543 2074 564 2168 636 2311 C 686 2411 727 2467 809 2548 C 911 2648 1016 2714 1152 2765 C 1221 2790 1226 2801 1200 2853 C 1179 2895 1179 2899 1194 2923 C 1208 2943 1233 2951 1248 2940 C 1249 2938 1254 2937 1259 2936 C 1290 2932 1266 2876 1228 2864 L 1208 2858 L 1228 2838 C 1250 2815 1270 2821 1270 2850 C 1270 2883 1292 2918 1316 2924 C 1348 2932 1364 2964 1350 2990 C 1344 3001 1343 3010 1349 3010 C 1354 3010 1363 3024 1369 3040 C 1376 3063 1385 3070 1404 3070 C 1418 3070 1431 3066 1434 3061 C 1437 3056 1449 3054 1460 3057 C 1471 3060 1480 3057 1480 3051 C 1480 3045 1475 3040 1469 3040 C 1460 3040 1461 3036 1469 3026 C 1475 3019 1477 3000 1474 2983 C 1465 2937 1489 2923 1551 2939 C 1579 2946 1603 2951 1605 2949 C 1607 2947 1611 2933 1615 2918 C 1620 2898 1617 2889 1603 2883 C 1576 2869 1565 2872 1540 2900 C 1522 2921 1519 2922 1525 2905 C 1529 2894 1536 2870 1542 2853 C 1547 2835 1556 2820 1561 2820 C 1580 2820 1670 2875 1670 2886 C 1670 2891 1662 2905 1653 2916 C 1596 2980 1596 2980 1613 2980 C 1630 2980 1671 2944 1689 2913 C 1699 2897 1702 2898 1727 2926 C 1779 2983 1800 3010 1800 3018 C 1800 3023 1775 3037 1744 3049 L 1688 3073 L 1652 3037 C 1607 2995 1516 2946 1495 2954 C 1474 2962 1476 2980 1498 2980 C 1533 2981 1597 3018 1646 3068 C 1742 3164 1769 3301 1715 3418 C 1657 3546 1566 3614 1438 3628 C 1396 3632 1356 3634 1349 3632 z M 1400 3596 C 1400 3588 1389 3579 1375 3576 C 1361 3572 1350 3566 1350 3561 C 1350 3552 1306 3534 1264 3526 C 1254 3523 1237 3519 1228 3515 C 1215 3510 1210 3513 1210 3527 C 1210 3539 1225 3552 1258 3567 C 1352 3610 1400 3620 1400 3596 z M 1546 3573 C 1576 3559 1603 3544 1605 3539 C 1614 3526 1592 3519 1573 3529 C 1563 3534 1526 3549 1490 3563 C 1416 3591 1395 3617 1455 3606 C 1475 3602 1517 3587 1546 3573 z M 1456 3544 C 1475 3535 1490 3526 1490 3525 C 1490 3523 1486 3510 1480 3496 C 1472 3475 1464 3470 1438 3470 C 1400 3470 1387 3477 1372 3506 C 1362 3524 1364 3530 1383 3543 C 1411 3563 1415 3563 1456 3544 z M 1608 3499 C 1620 3494 1633 3482 1637 3473 C 1640 3463 1652 3445 1663 3433 C 1680 3414 1681 3406 1673 3388 C 1667 3375 1659 3357 1656 3346 C 1652 3333 1645 3330 1632 3335 C 1623 3339 1603 3345 1588 3348 C 1571 3350 1558 3361 1554 3374 C 1550 3385 1537 3408 1525 3424 C 1509 3444 1505 3458 1510 3469 C 1515 3478 1521 3493 1524 3503 C 1530 3521 1550 3520 1608 3499 z M 1344 3476 L 1362 3442 L 1336 3407 C 1322 3389 1310 3368 1310 3363 C 1310 3353 1281 3339 1232 3325 C 1209 3318 1200 3325 1163 3376 L 1142 3407 L 1185 3451 C 1225 3492 1254 3506 1305 3509 C 1319 3510 1332 3499 1344 3476 z M 1515 3386 L 1546 3338 L 1522 3289 L 1497 3240 L 1441 3241 C 1385 3241 1385 3241 1354 3288 L 1324 3335 L 1346 3370 C 1384 3429 1392 3435 1439 3435 C 1481 3435 1485 3432 1515 3386 z M 1182 3248 C 1179 3211 1173 3197 1153 3184 C 1132 3171 1126 3170 1119 3181 C 1108 3199 1108 3201 1105 3290 C 1102 3390 1113 3402 1154 3342 C 1181 3302 1185 3287 1182 3248 z M 1714 3297 C 1714 3257 1708 3212 1702 3196 C 1692 3172 1687 3170 1674 3181 C 1666 3188 1662 3200 1665 3209 C 1669 3218 1673 3250 1676 3280 C 1682 3366 1690 3394 1704 3380 C 1710 3374 1715 3339 1714 3297 z M 1632 3249 C 1629 3204 1611 3180 1580 3180 C 1543 3180 1529 3225 1551 3274 C 1564 3302 1585 3310 1615 3299 C 1632 3293 1635 3285 1632 3249 z M 1306 3292 C 1325 3280 1341 3240 1335 3221 C 1332 3211 1321 3195 1311 3186 C 1294 3170 1289 3170 1256 3184 C 1223 3198 1220 3202 1220 3239 C 1220 3267 1225 3282 1238 3289 C 1258 3301 1290 3303 1306 3292 z M 1517 3183 C 1558 3122 1514 3081 1438 3108 C 1406 3120 1350 3104 1349 3082 C 1349 3073 1342 3082 1334 3102 C 1318 3139 1319 3140 1351 3180 C 1382 3219 1385 3220 1439 3219 C 1491 3217 1497 3215 1517 3183 z M 1247 3148 C 1280 3135 1302 3119 1306 3106 C 1310 3094 1319 3077 1328 3068 C 1341 3052 1341 3048 1326 3026 C 1314 3007 1305 3003 1291 3008 C 1252 3022 1179 3080 1160 3112 C 1141 3143 1141 3146 1157 3158 C 1180 3174 1186 3174 1247 3148 z M 1675 3160 C 1693 3131 1552 3002 1518 3015 C 1496 3024 1487 3050 1504 3056 C 1512 3059 1530 3079 1545 3101 C 1562 3128 1580 3143 1601 3147 C 1617 3150 1633 3157 1636 3161 C 1643 3173 1667 3172 1675 3160 z M 1720 2976 C 1695 2952 1695 2951 1672 2970 L 1650 2989 L 1676 3015 L 1703 3042 L 1724 3021 L 1744 3000 L 1720 2976 z M 1136 3013 C 1155 2988 1153 2972 1131 2965 C 1111 2959 1070 2978 1070 2993 C 1070 3006 1094 3029 1109 3030 C 1117 3030 1129 3022 1136 3013 z" stroke-linecap="round" />
</g>
		<g transform="matrix(0.13 0 0 -0.13 -52.36 -172.51)"  >
<path style="stroke: none; stroke-width: 1; stroke-dasharray: none; stroke-linecap: butt; stroke-dashoffset: 0; stroke-linejoin: miter; stroke-miterlimit: 4; fill: rgb(237,233,232); fill-opacity: 0.79; fill-rule: nonzero; opacity: 1;" vector-effect="non-scaling-stroke"  transform=" translate(-1060.53, -3493.64)" d="M 1075 3577 C 986 3473 976 3443 1021 3418 C 1059 3396 1070 3395 1070 3416 C 1070 3425 1084 3456 1101 3484 C 1130 3530 1131 3537 1119 3559 C 1102 3588 1089 3594 1075 3577 z" stroke-linecap="round" />
</g>
		<g transform="matrix(0.13 0 0 -0.13 40.32 -172.43)"  >
<path style="stroke: none; stroke-width: 1; stroke-dasharray: none; stroke-linecap: butt; stroke-dashoffset: 0; stroke-linejoin: miter; stroke-miterlimit: 4; fill: rgb(237,233,232); fill-opacity: 0.79; fill-rule: nonzero; opacity: 1;" vector-effect="non-scaling-stroke"  transform=" translate(-1755.69, -3493.02)" d="M 1701 3569 C 1675 3541 1675 3528 1700 3505 C 1710 3496 1727 3468 1736 3444 C 1745 3420 1755 3400 1758 3400 C 1766 3400 1830 3441 1830 3446 C 1830 3457 1761 3556 1742 3573 C 1723 3591 1721 3591 1701 3569 z" stroke-linecap="round" />
</g>
		<g transform="matrix(0.13 0 0 -0.13 -60.9 -149.36)"  >
<path style="stroke: none; stroke-width: 1; stroke-dasharray: none; stroke-linecap: butt; stroke-dashoffset: 0; stroke-linejoin: miter; stroke-miterlimit: 4; fill: rgb(237,233,232); fill-opacity: 0.79; fill-rule: nonzero; opacity: 1;" vector-effect="non-scaling-stroke"  transform=" translate(-996.5, -3320)" d="M 966 3377 C 958 3360 950 3319 948 3288 L 943 3230 L 997 3230 L 1050 3230 L 1050 3299 C 1050 3367 1050 3368 1014 3389 L 979 3410 L 966 3377 z M 1016 3285 C 1013 3277 1006 3270 1000 3270 C 989 3270 986 3333 997 3344 C 1007 3354 1023 3303 1016 3285 z" stroke-linecap="round" />
</g>
		<g transform="matrix(0.13 0 0 -0.13 48.43 -148.58)"  >
<path style="stroke: none; stroke-width: 1; stroke-dasharray: none; stroke-linecap: butt; stroke-dashoffset: 0; stroke-linejoin: miter; stroke-miterlimit: 4; fill: rgb(237,233,232); fill-opacity: 0.79; fill-rule: nonzero; opacity: 1;" vector-effect="non-scaling-stroke"  transform=" translate(-1816.46, -3314.13)" d="M 1799 3389 L 1763 3370 L 1765 3298 L 1766 3226 L 1816 3229 C 1843 3230 1867 3234 1869 3236 C 1875 3242 1850 3393 1842 3401 C 1838 3405 1819 3399 1799 3389 z M 1823 3278 C 1821 3273 1815 3270 1809 3270 C 1798 3270 1797 3323 1808 3334 C 1815 3342 1829 3290 1823 3278 z" stroke-linecap="round" />
</g>
		<g transform="matrix(0.13 0 0 -0.13 43.43 -123.39)"  >
<path style="stroke: none; stroke-width: 1; stroke-dasharray: none; stroke-linecap: butt; stroke-dashoffset: 0; stroke-linejoin: miter; stroke-miterlimit: 4; fill: rgb(237,233,232); fill-opacity: 0.79; fill-rule: nonzero; opacity: 1;" vector-effect="non-scaling-stroke"  transform=" translate(-1778.95, -3125.2)" d="M 1799 3202 C 1755 3199 1752 3197 1741 3161 C 1735 3140 1723 3117 1715 3110 C 1693 3092 1697 3080 1723 3080 C 1735 3080 1762 3071 1782 3060 C 1804 3048 1822 3044 1825 3050 C 1828 3056 1828 3060 1824 3060 C 1821 3060 1824 3070 1832 3083 C 1849 3109 1865 3197 1853 3202 C 1849 3203 1824 3204 1799 3202 z M 1808 3138 C 1806 3113 1800 3104 1783 3102 C 1755 3098 1752 3124 1777 3152 C 1801 3179 1812 3174 1808 3138 z" stroke-linecap="round" />
</g>
		<g transform="matrix(0.13 0 0 -0.13 -56.55 -123.46)"  >
<path style="stroke: none; stroke-width: 1; stroke-dasharray: none; stroke-linecap: butt; stroke-dashoffset: 0; stroke-linejoin: miter; stroke-miterlimit: 4; fill: rgb(237,233,232); fill-opacity: 0.79; fill-rule: nonzero; opacity: 1;" vector-effect="non-scaling-stroke"  transform=" translate(-1029.14, -3125.73)" d="M 950 3188 C 950 3177 962 3136 986 3068 C 994 3047 1007 3046 1040 3065 C 1054 3073 1076 3079 1088 3080 C 1101 3080 1110 3083 1108 3088 C 1107 3092 1094 3119 1080 3148 L 1055 3200 L 1003 3200 C 967 3200 950 3196 950 3188 z M 1053 3113 C 1045 3091 1020 3098 1008 3126 C 998 3147 999 3153 1011 3160 C 1028 3171 1061 3134 1053 3113 z" stroke-linecap="round" />
</g>
		<g transform="matrix(0.13 0 0 -0.13 -6.08 -76.47)"  >
<path style="stroke: none; stroke-width: 1; stroke-dasharray: none; stroke-linecap: butt; stroke-dashoffset: 0; stroke-linejoin: miter; stroke-miterlimit: 4; fill: rgb(237,233,232); fill-opacity: 0.79; fill-rule: nonzero; opacity: 1;" vector-effect="non-scaling-stroke"  transform=" translate(-1407.63, -2773.3)" d="M 1301 2863 C 1284 2810 1291 2785 1338 2724 C 1359 2697 1380 2667 1383 2658 C 1393 2631 1405 2636 1441 2683 C 1460 2706 1477 2727 1480 2730 C 1483 2733 1495 2751 1507 2770 C 1526 2803 1527 2808 1514 2853 C 1497 2908 1490 2913 1492 2868 C 1494 2814 1427 2704 1400 2715 C 1370 2727 1328 2801 1321 2853 L 1314 2905 L 1301 2863 z" stroke-linecap="round" />
</g>
		<g transform="matrix(0.13 0 0 -0.13 -4.04 34.69)"  >
<path style="stroke: none; stroke-width: 1; stroke-dasharray: none; stroke-linecap: butt; stroke-dashoffset: 0; stroke-linejoin: miter; stroke-miterlimit: 4; fill: rgb(237,233,232); fill-opacity: 0.79; fill-rule: nonzero; opacity: 1;" vector-effect="non-scaling-stroke"  transform=" translate(-1422.98, -1939.58)" d="M 1223 2600 C 1211 2595 1191 2581 1178 2568 C 1156 2546 1155 2540 1155 2346 L 1155 2146 L 991 2083 C 806 2013 779 1993 776 1928 C 774 1897 780 1880 798 1858 C 835 1814 838 1813 1105 1743 C 1138 1735 1169 1724 1174 1719 C 1180 1714 1185 1682 1186 1648 C 1191 1488 1202 1363 1212 1338 C 1224 1306 1277 1270 1310 1270 C 1357 1270 1395 1300 1449 1379 C 1510 1470 1512 1500 1457 1500 C 1428 1500 1420 1493 1377 1425 C 1298 1301 1283 1319 1274 1546 C 1267 1717 1260 1749 1224 1782 C 1213 1791 1131 1819 1040 1845 C 804 1911 798 1924 972 1989 C 1034 2013 1094 2036 1105 2040 C 1116 2045 1141 2056 1160 2064 C 1247 2101 1254 2121 1246 2294 C 1242 2372 1237 2450 1233 2468 C 1228 2501 1242 2530 1265 2530 C 1272 2530 1315 2484 1360 2428 C 1519 2228 1517 2230 1567 2230 C 1592 2230 1650 2244 1703 2264 C 1892 2334 1911 2340 1930 2340 C 1973 2340 1962 2303 1885 2189 C 1780 2035 1760 1998 1760 1964 C 1760 1930 1783 1894 1902 1743 C 1950 1682 1990 1628 1990 1622 C 1990 1617 1984 1607 1976 1601 C 1965 1592 1930 1598 1818 1628 C 1618 1683 1615 1684 1600 1666 C 1593 1657 1590 1640 1594 1626 C 1598 1608 1611 1600 1647 1590 C 1674 1583 1750 1562 1817 1544 C 1885 1525 1949 1510 1961 1510 C 1998 1510 2037 1537 2058 1577 C 2082 1620 2072 1656 2019 1727 C 1990 1764 1965 1797 1961 1800 C 1958 1803 1929 1839 1897 1881 C 1859 1932 1842 1963 1846 1974 C 1850 1983 1895 2054 1946 2132 C 2057 2299 2064 2326 2005 2385 C 1950 2439 1938 2438 1653 2331 L 1570 2301 L 1523 2359 C 1496 2390 1448 2450 1415 2492 C 1327 2602 1286 2625 1223 2600 z" stroke-linecap="round" />
</g>
		<g transform="matrix(0.13 0 0 -0.13 90.45 8)"  >
<path style="stroke: none; stroke-width: 1; stroke-dasharray: none; stroke-linecap: butt; stroke-dashoffset: 0; stroke-linejoin: miter; stroke-miterlimit: 4; fill: rgb(237,233,232); fill-opacity: 0.79; fill-rule: nonzero; opacity: 1;" vector-effect="non-scaling-stroke"  transform=" translate(-2131.64, -2139.76)" d="M 2069 2268 C 2069 2261 2069 2237 2070 2214 C 2071 2177 2068 2172 2041 2160 C 2024 2154 2005 2141 1998 2133 C 1982 2114 2003 2100 2048 2100 C 2083 2100 2100 2075 2100 2024 C 2100 2006 2105 2000 2121 2000 C 2132 2000 2138 2005 2135 2010 C 2132 2016 2132 2020 2137 2020 C 2141 2020 2151 2034 2159 2051 C 2172 2081 2174 2081 2221 2075 C 2280 2067 2286 2082 2241 2126 L 2211 2155 L 2231 2199 C 2242 2224 2247 2247 2242 2252 C 2238 2256 2217 2251 2195 2240 C 2159 2221 2155 2221 2131 2237 C 2117 2246 2101 2259 2097 2267 C 2087 2283 2070 2284 2069 2268 z M 2187 2149 C 2190 2120 2186 2113 2160 2098 C 2130 2081 2130 2081 2105 2108 C 2091 2123 2081 2137 2083 2140 C 2085 2143 2092 2159 2099 2177 C 2111 2208 2112 2208 2148 2196 C 2179 2185 2185 2178 2187 2149 z" stroke-linecap="round" />
</g>
		<g transform="matrix(0.13 0 0 -0.13 41.33 5.88)"  >
<path style="stroke: none; stroke-width: 1; stroke-dasharray: none; stroke-linecap: butt; stroke-dashoffset: 0; stroke-linejoin: miter; stroke-miterlimit: 4; fill: rgb(237,233,232); fill-opacity: 0.79; fill-rule: nonzero; opacity: 1;" vector-effect="non-scaling-stroke"  transform=" translate(-1763.23, -2155.65)" d="M 1741 2166 C 1727 2149 1752 2125 1775 2134 C 1795 2141 1794 2166 1774 2174 C 1753 2182 1754 2182 1741 2166 z" stroke-linecap="round" />
</g>
		<g transform="matrix(0.13 0 0 -0.13 13.1 16.35)"  >
<path style="stroke: none; stroke-width: 1; stroke-dasharray: none; stroke-linecap: butt; stroke-dashoffset: 0; stroke-linejoin: miter; stroke-miterlimit: 4; fill: rgb(237,233,232); fill-opacity: 0.79; fill-rule: nonzero; opacity: 1;" vector-effect="non-scaling-stroke"  transform=" translate(-1551.49, -2077.18)" d="M 1630 2156 C 1560 2119 1540 2109 1538 2111 C 1530 2118 1407 2073 1402 2062 C 1396 2045 1416 2007 1440 1992 C 1464 1978 1491 1986 1483 2006 C 1479 2018 1483 2020 1503 2015 C 1532 2007 1623 2037 1614 2051 C 1611 2056 1614 2060 1620 2060 C 1627 2060 1628 2066 1620 2079 C 1605 2108 1608 2119 1629 2113 C 1639 2111 1653 2097 1659 2083 C 1666 2068 1677 2060 1687 2062 C 1701 2065 1704 2074 1701 2110 C 1700 2135 1696 2158 1693 2162 C 1686 2174 1658 2171 1630 2156 z M 1558 2058 C 1560 2041 1555 2030 1544 2026 C 1531 2021 1530 2022 1538 2033 C 1545 2041 1545 2051 1540 2060 C 1527 2081 1528 2092 1543 2088 C 1549 2085 1556 2072 1558 2058 z M 1475 2030 C 1466 2015 1453 2018 1446 2036 C 1437 2060 1449 2072 1466 2055 C 1475 2047 1478 2036 1475 2030 z" stroke-linecap="round" />
</g>
		<g transform="matrix(0.13 0 0 -0.13 -21.43 29.23)"  >
<path style="stroke: none; stroke-width: 1; stroke-dasharray: none; stroke-linecap: butt; stroke-dashoffset: 0; stroke-linejoin: miter; stroke-miterlimit: 4; fill: rgb(237,233,232); fill-opacity: 0.79; fill-rule: nonzero; opacity: 1;" vector-effect="non-scaling-stroke"  transform=" translate(-1292.55, -1980.55)" d="M 1328 2053 C 1318 2051 1310 2045 1310 2040 C 1310 2032 1254 2009 1221 2004 C 1188 1998 1181 1956 1210 1938 C 1221 1931 1230 1919 1230 1911 C 1230 1894 1285 1903 1309 1924 C 1318 1931 1336 1940 1350 1944 C 1399 1956 1402 1963 1381 2013 C 1370 2039 1357 2059 1353 2059 C 1349 2058 1337 2056 1328 2053 z M 1364 2001 C 1366 1998 1360 1987 1350 1977 C 1334 1961 1333 1961 1322 1984 C 1313 2005 1314 2008 1336 2008 C 1349 2008 1362 2005 1364 2001 z M 1292 1948 C 1281 1937 1242 1950 1236 1967 C 1232 1978 1234 1980 1245 1977 C 1253 1973 1262 1976 1266 1982 C 1271 1989 1278 1987 1287 1975 C 1294 1964 1297 1953 1292 1948 z" stroke-linecap="round" />
</g>
		<g transform="matrix(0.13 0 0 -0.13 8.23 50.92)"  >
<path style="stroke: none; stroke-width: 1; stroke-dasharray: none; stroke-linecap: butt; stroke-dashoffset: 0; stroke-linejoin: miter; stroke-miterlimit: 4; fill: rgb(237,233,232); fill-opacity: 0.79; fill-rule: nonzero; opacity: 1;" vector-effect="non-scaling-stroke"  transform=" translate(-1515, -1817.86)" d="M 1513 1948 C 1507 1941 1501 1926 1499 1915 C 1496 1902 1483 1893 1457 1887 C 1436 1882 1421 1873 1423 1866 C 1428 1854 1439 1854 1488 1864 C 1512 1870 1521 1868 1526 1856 C 1534 1835 1507 1803 1438 1752 C 1406 1728 1380 1702 1380 1694 C 1380 1675 1396 1676 1418 1698 C 1441 1719 1464 1734 1513 1759 C 1548 1777 1551 1777 1545 1762 C 1528 1722 1528 1700 1544 1700 C 1566 1700 1590 1752 1590 1800 C 1590 1851 1605 1880 1630 1880 C 1643 1880 1650 1887 1650 1898 C 1650 1921 1582 1956 1567 1941 C 1559 1933 1551 1935 1540 1945 C 1526 1958 1521 1958 1513 1948 z" stroke-linecap="round" />
</g>
		<g transform="matrix(0.13 0 0 -0.13 -12.09 59.5)"  >
<path style="stroke: none; stroke-width: 1; stroke-dasharray: none; stroke-linecap: butt; stroke-dashoffset: 0; stroke-linejoin: miter; stroke-miterlimit: 4; fill: rgb(237,233,232); fill-opacity: 0.79; fill-rule: nonzero; opacity: 1;" vector-effect="non-scaling-stroke"  transform=" translate(-1362.55, -1753.51)" d="M 1341 1766 C 1332 1755 1333 1748 1346 1736 C 1365 1716 1390 1731 1390 1761 C 1390 1784 1358 1787 1341 1766 z" stroke-linecap="round" />
</g>
		<g transform="matrix(0.13 0 0 -0.13 -87.29 102.03)"  >
<path style="stroke: none; stroke-width: 1; stroke-dasharray: none; stroke-linecap: butt; stroke-dashoffset: 0; stroke-linejoin: miter; stroke-miterlimit: 4; fill: rgb(237,233,232); fill-opacity: 0.79; fill-rule: nonzero; opacity: 1;" vector-effect="non-scaling-stroke"  transform=" translate(-798.56, -1434.53)" d="M 793 1463 C 786 1461 780 1445 780 1429 C 780 1406 784 1400 803 1400 C 819 1400 821 1403 811 1409 C 803 1414 799 1428 802 1444 C 805 1458 807 1470 806 1469 C 806 1469 799 1466 793 1463 z" stroke-linecap="round" />
</g>
		<g transform="matrix(0.13 0 0 -0.13 -79.35 102.51)"  >
<path style="stroke: none; stroke-width: 1; stroke-dasharray: none; stroke-linecap: butt; stroke-dashoffset: 0; stroke-linejoin: miter; stroke-miterlimit: 4; fill: rgb(237,233,232); fill-opacity: 0.79; fill-rule: nonzero; opacity: 1;" vector-effect="non-scaling-stroke"  transform=" translate(-858.11, -1430.92)" d="M 844 1455 C 840 1446 845 1433 856 1424 C 873 1410 873 1409 858 1414 C 840 1419 833 1406 848 1396 C 864 1386 879 1407 876 1435 C 872 1468 853 1480 844 1455 z" stroke-linecap="round" />
</g>
		<g transform="matrix(0.13 0 0 -0.13 -71.23 101.09)"  >
<path style="stroke: none; stroke-width: 1; stroke-dasharray: none; stroke-linecap: butt; stroke-dashoffset: 0; stroke-linejoin: miter; stroke-miterlimit: 4; fill: rgb(237,233,232); fill-opacity: 0.79; fill-rule: nonzero; opacity: 1;" vector-effect="non-scaling-stroke"  transform=" translate(-919.04, -1441.64)" d="M 907 1464 C 903 1460 900 1446 900 1433 C 900 1412 902 1411 920 1422 C 931 1429 939 1441 938 1449 C 935 1465 917 1474 907 1464 z" stroke-linecap="round" />
</g>
		<g transform="matrix(0.13 0 0 -0.13 -63.1 101.97)"  >
<path style="stroke: none; stroke-width: 1; stroke-dasharray: none; stroke-linecap: butt; stroke-dashoffset: 0; stroke-linejoin: miter; stroke-miterlimit: 4; fill: rgb(237,233,232); fill-opacity: 0.79; fill-rule: nonzero; opacity: 1;" vector-effect="non-scaling-stroke"  transform=" translate(-980, -1435)" d="M 967 1463 C 963 1460 960 1444 960 1428 C 960 1407 965 1400 980 1400 C 991 1400 1000 1405 1000 1411 C 1000 1416 996 1419 991 1415 C 986 1412 979 1414 975 1420 C 972 1425 974 1430 980 1430 C 986 1430 988 1435 984 1441 C 981 1447 984 1456 991 1461 C 1002 1468 1002 1470 989 1470 C 980 1470 970 1467 967 1463 z" stroke-linecap="round" />
</g>
		<g transform="matrix(0.13 0 0 -0.13 -55.52 101.98)"  >
<path style="stroke: none; stroke-width: 1; stroke-dasharray: none; stroke-linecap: butt; stroke-dashoffset: 0; stroke-linejoin: miter; stroke-miterlimit: 4; fill: rgb(237,233,232); fill-opacity: 0.79; fill-rule: nonzero; opacity: 1;" vector-effect="non-scaling-stroke"  transform=" translate(-1036.86, -1434.9)" d="M 1021 1456 C 1012 1445 1011 1436 1020 1421 C 1031 1400 1060 1392 1060 1410 C 1060 1416 1055 1419 1048 1418 C 1042 1416 1034 1423 1032 1433 C 1030 1443 1034 1450 1044 1450 C 1053 1450 1060 1455 1060 1460 C 1060 1475 1034 1472 1021 1456 z" stroke-linecap="round" />
</g>
		<g transform="matrix(0.13 0 0 -0.13 -46.71 101.86)"  >
<path style="stroke: none; stroke-width: 1; stroke-dasharray: none; stroke-linecap: butt; stroke-dashoffset: 0; stroke-linejoin: miter; stroke-miterlimit: 4; fill: rgb(237,233,232); fill-opacity: 0.79; fill-rule: nonzero; opacity: 1;" vector-effect="non-scaling-stroke"  transform=" translate(-1102.93, -1435.8)" d="M 1080 1460 C 1080 1455 1085 1450 1090 1450 C 1096 1450 1101 1438 1101 1423 C 1103 1395 1103 1395 1107 1420 C 1110 1434 1117 1451 1122 1458 C 1130 1467 1126 1470 1106 1470 C 1092 1470 1080 1466 1080 1460 z" stroke-linecap="round" />
</g>
		<g transform="matrix(0.13 0 0 -0.13 74.98 102.22)"  >
<path style="stroke: none; stroke-width: 1; stroke-dasharray: none; stroke-linecap: butt; stroke-dashoffset: 0; stroke-linejoin: miter; stroke-miterlimit: 4; fill: rgb(237,233,232); fill-opacity: 0.79; fill-rule: nonzero; opacity: 1;" vector-effect="non-scaling-stroke"  transform=" translate(-2015.57, -1433.12)" d="M 2000 1454 C 2000 1445 2008 1431 2018 1423 C 2033 1410 2033 1410 2010 1416 C 1988 1422 1987 1421 1998 1407 C 2012 1390 2040 1395 2040 1414 C 2040 1420 2037 1435 2034 1448 C 2027 1473 2000 1478 2000 1454 z" stroke-linecap="round" />
</g>
		<g transform="matrix(0.13 0 0 -0.13 87.85 101.83)"  >
<path style="stroke: none; stroke-width: 1; stroke-dasharray: none; stroke-linecap: butt; stroke-dashoffset: 0; stroke-linejoin: miter; stroke-miterlimit: 4; fill: rgb(237,233,232); fill-opacity: 0.79; fill-rule: nonzero; opacity: 1;" vector-effect="non-scaling-stroke"  transform=" translate(-2112.09, -1436.08)" d="M 2090 1433 C 2091 1400 2092 1397 2104 1412 C 2112 1423 2120 1426 2126 1420 C 2132 1414 2135 1420 2134 1438 C 2134 1458 2127 1466 2112 1468 C 2093 1471 2090 1467 2090 1433 z" stroke-linecap="round" />
</g>
		<g transform="matrix(0.13 0 0 -0.13 -95.24 102.26)"  >
<path style="stroke: none; stroke-width: 1; stroke-dasharray: none; stroke-linecap: butt; stroke-dashoffset: 0; stroke-linejoin: miter; stroke-miterlimit: 4; fill: rgb(237,233,232); fill-opacity: 0.79; fill-rule: nonzero; opacity: 1;" vector-effect="non-scaling-stroke"  transform=" translate(-738.93, -1432.81)" d="M 721 1428 C 721 1410 724 1401 727 1408 C 730 1417 736 1418 744 1411 C 754 1403 757 1408 757 1430 C 757 1452 752 1460 738 1460 C 724 1460 720 1453 721 1428 z" stroke-linecap="round" />
</g>
		<g transform="matrix(0.13 0 0 -0.13 47.22 103.21)"  >
<path style="stroke: none; stroke-width: 1; stroke-dasharray: none; stroke-linecap: butt; stroke-dashoffset: 0; stroke-linejoin: miter; stroke-miterlimit: 4; fill: rgb(237,233,232); fill-opacity: 0.79; fill-rule: nonzero; opacity: 1;" vector-effect="non-scaling-stroke"  transform=" translate(-1807.42, -1425.71)" d="M 1788 1430 C 1785 1413 1787 1397 1792 1394 C 1796 1391 1800 1396 1800 1404 C 1800 1413 1807 1420 1816 1420 C 1836 1420 1830 1454 1809 1458 C 1797 1460 1791 1452 1788 1430 z" stroke-linecap="round" />
</g>
		<g transform="matrix(0.13 0 0 -0.13 55.62 103.79)"  >
<path style="stroke: none; stroke-width: 1; stroke-dasharray: none; stroke-linecap: butt; stroke-dashoffset: 0; stroke-linejoin: miter; stroke-miterlimit: 4; fill: rgb(237,233,232); fill-opacity: 0.79; fill-rule: nonzero; opacity: 1;" vector-effect="non-scaling-stroke"  transform=" translate(-1870.41, -1421.38)" d="M 1851 1428 C 1850 1396 1853 1390 1870 1390 C 1881 1390 1890 1395 1890 1400 C 1890 1406 1884 1410 1876 1410 C 1868 1410 1859 1422 1857 1438 C 1854 1460 1853 1458 1851 1428 z" stroke-linecap="round" />
</g>
		<g transform="matrix(0.13 0 0 -0.13 63.08 102.42)"  >
<path style="stroke: none; stroke-width: 1; stroke-dasharray: none; stroke-linecap: butt; stroke-dashoffset: 0; stroke-linejoin: miter; stroke-miterlimit: 4; fill: rgb(237,233,232); fill-opacity: 0.79; fill-rule: nonzero; opacity: 1;" vector-effect="non-scaling-stroke"  transform=" translate(-1926.36, -1431.64)" d="M 1910 1446 C 1910 1438 1907 1425 1904 1417 C 1900 1406 1905 1402 1924 1404 C 1938 1404 1950 1406 1950 1407 C 1950 1408 1946 1420 1940 1434 C 1930 1462 1910 1469 1910 1446 z" stroke-linecap="round" />
</g>
		<g transform="matrix(0.13 0 0 -0.13 8.23 136.39)"  >
<path style="stroke: none; stroke-width: 1; stroke-dasharray: none; stroke-linecap: butt; stroke-dashoffset: 0; stroke-linejoin: miter; stroke-miterlimit: 4; fill: rgb(237,233,232); fill-opacity: 0.79; fill-rule: nonzero; opacity: 1;" vector-effect="non-scaling-stroke"  transform=" translate(-1515, -1176.88)" d="M 1530 1195 C 1530 1187 1526 1180 1520 1180 C 1515 1180 1510 1185 1510 1190 C 1510 1196 1506 1200 1500 1200 C 1495 1200 1490 1190 1490 1178 C 1490 1166 1493 1160 1497 1163 C 1500 1167 1512 1163 1522 1153 C 1539 1138 1540 1139 1540 1173 C 1540 1194 1538 1210 1535 1210 C 1532 1210 1530 1203 1530 1195 z" stroke-linecap="round" />
</g>
		<g transform="matrix(0.13 0 0 -0.13 17.13 136.55)"  >
<path style="stroke: none; stroke-width: 1; stroke-dasharray: none; stroke-linecap: butt; stroke-dashoffset: 0; stroke-linejoin: miter; stroke-miterlimit: 4; fill: rgb(237,233,232); fill-opacity: 0.79; fill-rule: nonzero; opacity: 1;" vector-effect="non-scaling-stroke"  transform=" translate(-1581.7, -1175.69)" d="M 1590 1194 C 1590 1181 1587 1180 1575 1190 C 1562 1200 1560 1199 1560 1180 C 1560 1167 1563 1160 1567 1163 C 1570 1167 1578 1162 1585 1153 C 1596 1139 1598 1141 1602 1169 C 1605 1186 1603 1203 1598 1206 C 1594 1209 1590 1204 1590 1194 z" stroke-linecap="round" />
</g>
		<g transform="matrix(0.13 0 0 -0.13 32.05 136.64)"  >
<path style="stroke: none; stroke-width: 1; stroke-dasharray: none; stroke-linecap: butt; stroke-dashoffset: 0; stroke-linejoin: miter; stroke-miterlimit: 4; fill: rgb(237,233,232); fill-opacity: 0.79; fill-rule: nonzero; opacity: 1;" vector-effect="non-scaling-stroke"  transform=" translate(-1693.61, -1175)" d="M 1678 1175 C 1681 1154 1688 1140 1696 1140 C 1704 1140 1710 1145 1710 1150 C 1710 1156 1706 1160 1700 1160 C 1695 1160 1690 1171 1690 1185 C 1690 1199 1686 1210 1682 1210 C 1678 1210 1676 1194 1678 1175 z" stroke-linecap="round" />
</g>
		<g transform="matrix(0.13 0 0 -0.13 43.41 136.61)"  >
<path style="stroke: none; stroke-width: 1; stroke-dasharray: none; stroke-linecap: butt; stroke-dashoffset: 0; stroke-linejoin: miter; stroke-miterlimit: 4; fill: rgb(237,233,232); fill-opacity: 0.79; fill-rule: nonzero; opacity: 1;" vector-effect="non-scaling-stroke"  transform=" translate(-1778.86, -1175.19)" d="M 1760 1196 C 1760 1188 1765 1178 1770 1175 C 1776 1172 1780 1164 1780 1159 C 1780 1153 1776 1152 1770 1155 C 1765 1158 1760 1156 1760 1151 C 1760 1137 1787 1137 1795 1150 C 1804 1165 1789 1210 1774 1210 C 1766 1210 1760 1204 1760 1196 z" stroke-linecap="round" />
</g>
		<g transform="matrix(0.13 0 0 -0.13 51.95 135.68)"  >
<path style="stroke: none; stroke-width: 1; stroke-dasharray: none; stroke-linecap: butt; stroke-dashoffset: 0; stroke-linejoin: miter; stroke-miterlimit: 4; fill: rgb(237,233,232); fill-opacity: 0.79; fill-rule: nonzero; opacity: 1;" vector-effect="non-scaling-stroke"  transform=" translate(-1842.87, -1182.18)" d="M 1817 1190 C 1822 1172 1827 1168 1846 1171 C 1850 1171 1857 1166 1861 1158 C 1867 1150 1870 1157 1870 1180 C 1869 1212 1868 1213 1856 1197 C 1844 1182 1842 1181 1836 1195 C 1828 1217 1811 1213 1817 1190 z" stroke-linecap="round" />
</g>
		<g transform="matrix(0.13 0 0 -0.13 60.9 136.43)"  >
<path style="stroke: none; stroke-width: 1; stroke-dasharray: none; stroke-linecap: butt; stroke-dashoffset: 0; stroke-linejoin: miter; stroke-miterlimit: 4; fill: rgb(237,233,232); fill-opacity: 0.79; fill-rule: nonzero; opacity: 1;" vector-effect="non-scaling-stroke"  transform=" translate(-1910, -1176.55)" d="M 1897 1203 C 1884 1190 1890 1152 1906 1146 C 1927 1138 1939 1148 1922 1159 C 1908 1168 1909 1191 1925 1202 C 1931 1207 1928 1210 1919 1210 C 1910 1210 1900 1207 1897 1203 z" stroke-linecap="round" />
</g>
		<g transform="matrix(0.13 0 0 -0.13 -42.66 137.8)"  >
<path style="stroke: none; stroke-width: 1; stroke-dasharray: none; stroke-linecap: butt; stroke-dashoffset: 0; stroke-linejoin: miter; stroke-miterlimit: 4; fill: rgb(237,233,232); fill-opacity: 0.79; fill-rule: nonzero; opacity: 1;" vector-effect="non-scaling-stroke"  transform=" translate(-1133.33, -1166.24)" d="M 1120 1184 C 1110 1173 1109 1164 1117 1152 C 1134 1125 1155 1132 1155 1164 C 1155 1198 1139 1208 1120 1184 z" stroke-linecap="round" />
</g>
		<g transform="matrix(0.13 0 0 -0.13 -34.73 137.82)"  >
<path style="stroke: none; stroke-width: 1; stroke-dasharray: none; stroke-linecap: butt; stroke-dashoffset: 0; stroke-linejoin: miter; stroke-miterlimit: 4; fill: rgb(237,233,232); fill-opacity: 0.79; fill-rule: nonzero; opacity: 1;" vector-effect="non-scaling-stroke"  transform=" translate(-1192.82, -1166.16)" d="M 1180 1163 C 1180 1126 1187 1121 1193 1156 C 1194 1166 1199 1181 1203 1188 C 1208 1195 1206 1200 1196 1200 C 1184 1200 1180 1190 1180 1163 z" stroke-linecap="round" />
</g>
		<g transform="matrix(0.13 0 0 -0.13 -27.01 137.88)"  >
<path style="stroke: none; stroke-width: 1; stroke-dasharray: none; stroke-linecap: butt; stroke-dashoffset: 0; stroke-linejoin: miter; stroke-miterlimit: 4; fill: rgb(237,233,232); fill-opacity: 0.79; fill-rule: nonzero; opacity: 1;" vector-effect="non-scaling-stroke"  transform=" translate(-1250.71, -1165.69)" d="M 1232 1168 C 1234 1146 1241 1134 1253 1132 C 1262 1130 1270 1133 1270 1139 C 1270 1145 1263 1150 1255 1150 C 1244 1150 1243 1155 1250 1175 C 1258 1195 1256 1200 1244 1200 C 1233 1200 1230 1191 1232 1168 z" stroke-linecap="round" />
</g>
		<g transform="matrix(0.13 0 0 -0.13 -20.11 137.85)"  >
<path style="stroke: none; stroke-width: 1; stroke-dasharray: none; stroke-linecap: butt; stroke-dashoffset: 0; stroke-linejoin: miter; stroke-miterlimit: 4; fill: rgb(237,233,232); fill-opacity: 0.79; fill-rule: nonzero; opacity: 1;" vector-effect="non-scaling-stroke"  transform=" translate(-1302.41, -1165.9)" d="M 1286 1191 C 1283 1186 1287 1177 1295 1170 C 1315 1153 1314 1139 1293 1147 C 1278 1152 1277 1150 1287 1140 C 1297 1129 1302 1129 1315 1140 C 1325 1148 1327 1157 1321 1163 C 1316 1168 1314 1179 1317 1186 C 1323 1201 1295 1206 1286 1191 z" stroke-linecap="round" />
</g>
		<g transform="matrix(0.13 0 0 -0.13 -12.02 137.68)"  >
<path style="stroke: none; stroke-width: 1; stroke-dasharray: none; stroke-linecap: butt; stroke-dashoffset: 0; stroke-linejoin: miter; stroke-miterlimit: 4; fill: rgb(237,233,232); fill-opacity: 0.79; fill-rule: nonzero; opacity: 1;" vector-effect="non-scaling-stroke"  transform=" translate(-1363.1, -1167.18)" d="M 1340 1189 C 1340 1182 1348 1171 1358 1164 C 1374 1151 1374 1151 1357 1150 C 1347 1150 1342 1145 1345 1140 C 1349 1133 1358 1134 1371 1141 C 1390 1151 1391 1153 1375 1170 C 1362 1184 1362 1189 1372 1193 C 1379 1196 1375 1199 1363 1199 C 1350 1200 1340 1195 1340 1189 z" stroke-linecap="round" />
</g>
		<g transform="matrix(0.13 0 0 -0.13 0 137.3)"  >
<path style="stroke: none; stroke-width: 1; stroke-dasharray: none; stroke-linecap: butt; stroke-dashoffset: 0; stroke-linejoin: miter; stroke-miterlimit: 4; fill: rgb(237,233,232); fill-opacity: 0.79; fill-rule: nonzero; opacity: 1;" vector-effect="non-scaling-stroke"  transform=" translate(-1453.25, -1170)" d="M 1430 1170 C 1430 1147 1435 1140 1449 1140 C 1470 1140 1482 1162 1474 1185 C 1470 1193 1459 1200 1449 1200 C 1435 1200 1430 1193 1430 1170 z" stroke-linecap="round" />
</g>
		<g transform="matrix(0.13 0 0 -0.13 25.03 136.64)"  >
<path style="stroke: none; stroke-width: 1; stroke-dasharray: none; stroke-linecap: butt; stroke-dashoffset: 0; stroke-linejoin: miter; stroke-miterlimit: 4; fill: rgb(237,233,232); fill-opacity: 0.79; fill-rule: nonzero; opacity: 1;" vector-effect="non-scaling-stroke"  transform=" translate(-1641.01, -1174.96)" d="M 1630 1191 C 1630 1186 1627 1175 1624 1166 C 1620 1154 1624 1150 1639 1150 C 1661 1150 1664 1158 1654 1184 C 1647 1201 1630 1206 1630 1191 z" stroke-linecap="round" />
</g>
		<g transform="matrix(0.13 0 0 -0.13 -57.96 137.77)"  >
<path style="stroke: none; stroke-width: 1; stroke-dasharray: none; stroke-linecap: butt; stroke-dashoffset: 0; stroke-linejoin: miter; stroke-miterlimit: 4; fill: rgb(237,233,232); fill-opacity: 0.79; fill-rule: nonzero; opacity: 1;" vector-effect="non-scaling-stroke"  transform=" translate(-1018.54, -1166.48)" d="M 1000 1165 C 1000 1142 1002 1140 1021 1150 C 1044 1163 1042 1183 1017 1188 C 1005 1191 1000 1184 1000 1165 z" stroke-linecap="round" />
</g>
		<g transform="matrix(0.13 0 0 -0.13 -49.91 138.26)"  >
<path style="stroke: none; stroke-width: 1; stroke-dasharray: none; stroke-linecap: butt; stroke-dashoffset: 0; stroke-linejoin: miter; stroke-miterlimit: 4; fill: rgb(237,233,232); fill-opacity: 0.79; fill-rule: nonzero; opacity: 1;" vector-effect="non-scaling-stroke"  transform=" translate(-1078.93, -1162.81)" d="M 1061 1158 C 1061 1140 1064 1131 1067 1138 C 1070 1147 1076 1148 1084 1141 C 1094 1133 1097 1138 1097 1160 C 1097 1182 1092 1190 1078 1190 C 1064 1190 1060 1183 1061 1158 z" stroke-linecap="round" />
</g>
		<g transform="matrix(0.13 0 0 -0.13 -50.4 199.34)"  >
<path style="stroke: none; stroke-width: 1; stroke-dasharray: none; stroke-linecap: butt; stroke-dashoffset: 0; stroke-linejoin: miter; stroke-miterlimit: 4; fill: rgb(237,233,232); fill-opacity: 0.79; fill-rule: nonzero; opacity: 1;" vector-effect="non-scaling-stroke"  transform=" translate(-1075.29, -704.7)" d="M 1029 778 C 1029 777 1028 742 1027 702 C 1025 639 1027 630 1043 630 C 1056 630 1060 637 1058 663 C 1055 689 1059 695 1075 695 C 1091 695 1095 689 1092 663 C 1090 637 1094 630 1108 630 C 1123 630 1125 639 1124 703 C 1123 761 1119 776 1106 778 C 1093 781 1090 775 1092 748 C 1095 721 1092 715 1075 715 C 1060 715 1055 722 1055 744 C 1055 760 1049 775 1043 777 C 1036 780 1030 780 1029 778 z" stroke-linecap="round" />
</g>
		<g transform="matrix(0.13 0 0 -0.13 -32.2 199.33)"  >
<path style="stroke: none; stroke-width: 1; stroke-dasharray: none; stroke-linecap: butt; stroke-dashoffset: 0; stroke-linejoin: miter; stroke-miterlimit: 4; fill: rgb(237,233,232); fill-opacity: 0.79; fill-rule: nonzero; opacity: 1;" vector-effect="non-scaling-stroke"  transform=" translate(-1211.79, -704.78)" d="M 1165 705 C 1165 643 1168 630 1180 632 C 1190 634 1194 645 1192 664 C 1188 698 1213 696 1218 661 C 1221 639 1245 622 1257 633 C 1260 636 1252 655 1240 674 L 1218 710 L 1239 739 C 1265 775 1265 780 1241 780 C 1227 780 1220 772 1218 753 C 1216 739 1209 725 1202 722 C 1192 719 1189 726 1192 746 C 1194 766 1190 776 1180 778 C 1167 780 1164 768 1165 705 z" stroke-linecap="round" />
</g>
		<g transform="matrix(0.13 0 0 -0.13 -8.23 199.6)"  >
<path style="stroke: none; stroke-width: 1; stroke-dasharray: none; stroke-linecap: butt; stroke-dashoffset: 0; stroke-linejoin: miter; stroke-miterlimit: 4; fill: rgb(237,233,232); fill-opacity: 0.79; fill-rule: nonzero; opacity: 1;" vector-effect="non-scaling-stroke"  transform=" translate(-1391.5, -702.81)" d="M 1349 770 C 1349 767 1348 736 1348 700 C 1348 648 1351 634 1364 632 C 1377 629 1380 636 1378 662 C 1376 689 1378 694 1393 692 C 1417 688 1415 706 1390 713 C 1379 716 1370 726 1370 735 C 1370 747 1378 751 1403 748 C 1426 746 1435 749 1435 759 C 1435 770 1423 774 1392 774 C 1369 775 1350 773 1349 770 z" stroke-linecap="round" />
</g>
		<g transform="matrix(0.13 0 0 -0.13 6.9 199.29)"  >
<path style="stroke: none; stroke-width: 1; stroke-dasharray: none; stroke-linecap: butt; stroke-dashoffset: 0; stroke-linejoin: miter; stroke-miterlimit: 4; fill: rgb(237,233,232); fill-opacity: 0.79; fill-rule: nonzero; opacity: 1;" vector-effect="non-scaling-stroke"  transform=" translate(-1505, -705.1)" d="M 1478 769 C 1464 762 1460 746 1460 707 C 1460 650 1472 630 1505 630 C 1538 630 1550 650 1550 705 C 1550 774 1524 796 1478 769 z M 1528 721 C 1536 667 1502 623 1486 666 C 1478 687 1478 735 1487 744 C 1501 757 1525 744 1528 721 z" stroke-linecap="round" />
</g>
		<g transform="matrix(0.13 0 0 -0.13 23.18 199.31)"  >
<path style="stroke: none; stroke-width: 1; stroke-dasharray: none; stroke-linecap: butt; stroke-dashoffset: 0; stroke-linejoin: miter; stroke-miterlimit: 4; fill: rgb(237,233,232); fill-opacity: 0.79; fill-rule: nonzero; opacity: 1;" vector-effect="non-scaling-stroke"  transform=" translate(-1627.08, -704.93)" d="M 1596 764 C 1578 746 1575 679 1590 649 C 1601 629 1635 624 1660 640 C 1679 652 1678 759 1659 771 C 1638 784 1613 782 1596 764 z M 1648 703 C 1646 667 1641 654 1628 652 C 1613 649 1610 656 1610 699 C 1610 744 1613 750 1631 750 C 1649 750 1651 745 1648 703 z" stroke-linecap="round" />
</g>
		<g transform="matrix(0.13 0 0 -0.13 40.14 199.3)"  >
<path style="stroke: none; stroke-width: 1; stroke-dasharray: none; stroke-linecap: butt; stroke-dashoffset: 0; stroke-linejoin: miter; stroke-miterlimit: 4; fill: rgb(237,233,232); fill-opacity: 0.79; fill-rule: nonzero; opacity: 1;" vector-effect="non-scaling-stroke"  transform=" translate(-1754.31, -705)" d="M 1700 748 C 1700 732 1705 720 1710 720 C 1716 720 1720 727 1720 735 C 1720 743 1725 750 1731 750 C 1737 750 1740 728 1739 693 C 1736 642 1738 635 1755 635 C 1772 635 1774 642 1771 693 C 1770 728 1773 750 1779 750 C 1785 750 1790 743 1790 735 C 1790 727 1795 720 1801 720 C 1807 720 1810 732 1808 748 C 1805 774 1802 775 1753 775 C 1702 775 1700 774 1700 748 z" stroke-linecap="round" />
</g>
		<g transform="matrix(0.13 0 0 -0.13 60.29 201.04)"  >
<path style="stroke: none; stroke-width: 1; stroke-dasharray: none; stroke-linecap: butt; stroke-dashoffset: 0; stroke-linejoin: miter; stroke-miterlimit: 4; fill: rgb(237,233,232); fill-opacity: 0.79; fill-rule: nonzero; opacity: 1;" vector-effect="non-scaling-stroke"  transform=" translate(-1905.42, -691.99)" d="M 1892 728 C 1894 711 1889 704 1873 702 C 1842 697 1844 680 1876 680 C 1896 680 1900 676 1895 661 C 1892 650 1894 639 1900 635 C 1906 631 1910 639 1910 654 C 1910 675 1915 680 1935 680 C 1949 680 1960 685 1960 690 C 1960 696 1949 700 1935 700 C 1915 700 1910 705 1910 725 C 1910 739 1905 750 1899 750 C 1894 750 1890 740 1892 728 z" stroke-linecap="round" />
</g>
</g>
</g>
</svg>